<svg width="100%" height="100%" viewBox="0 0 460 230" version="1.1" xmlns="http://www.w3.org/2000/svg" xmlns:xlink="http://www.w3.org/1999/xlink" xml:space="preserve" style="fill-rule:evenodd;clip-rule:evenodd;stroke-linejoin:round;stroke-miterlimit:1.41421;"><rect id="Intro" x="0" y="0" width="348.866" height="229.25" style="fill:none;"/><path id="lines" d="M233.842,38.687l1.7,-1.7l-1.7,-1.7l-1.4,0l1.2,1.2l-108.3,0c-4.1,0 -8.4,2.1 -8.4,6.8l0,4c-11.1,-6.5 -24,-10.3 -37.7,-10.5l0,-20.8c0,-5.2 4.3,-9.5 9.5,-9.5l144.9,0l-1.2,1.2l1.4,0l1.7,-1.7l-1.7,-1.7l-1.4,0l1.2,1.2l-114.6,0l-1.6,0l-28.7,0c-5.8,0 -10.5,4.7 -10.5,10.5l0,20.8l-0.1,0c-42.6,0 -77.2,34.7 -77.2,77.2c0,42.6 34.6,77.2 77.2,77.2l0.1,0l0,31.5l155.4,0l-1.2,1.2l1.4,0l1.7,-1.7l-1.7,-1.7l-1.4,0l1.2,1.2l-154.4,0l0,-30.5c13.7,-0.2 26.6,-4 37.7,-10.5l0,4.3c0,4.7 4.4,6.8 8.4,6.8l108.2,0l-1.2,1.2l1.4,0l1.7,-1.7l-1.7,-1.7l-1.4,0l1.2,1.2l-108.2,0c-3.7,0 -7.4,-1.8 -7.4,-5.8l0,-4.9c8.3,-5 15.6,-11.6 21.5,-19.3l94.1,0l-1.2,1.2l1.4,0l1.7,-1.7l-1.7,-1.7l-1.4,0l1.2,1.2l-93.4,0c6.4,-8.7 11,-18.7 13.4,-29.6l80,0l-1.2,1.2l1.4,0l1.7,-1.7l-1.7,-1.7l-1.4,0l1.2,1.2l-79.8,0c1,-4.9 1.5,-10 1.5,-15.2c0,-5 -0.5,-10 -1.4,-14.7l79.7,0l-1.2,1.2l1.4,0l1.7,-1.7l-1.7,-1.7l-1.4,0l1.2,1.2l-79.9,0c-2.3,-11.1 -7,-21.3 -13.5,-30.1l93.4,0l-1.2,1.2l1.4,0l1.7,-1.7l-1.7,-1.7l-1.4,0l1.2,1.2l-94.1,0c-5.9,-7.7 -13.2,-14.3 -21.5,-19.3l0,-4.6c0,-4 3.7,-5.8 7.4,-5.8l108.2,0l-1.2,1.2l1.5,0Zm-80,75.3c0,41.8 -33.9,75.7 -75.7,75.7c-41.8,0 -75.7,-33.9 -75.7,-75.7c0,-41.8 33.9,-75.7 75.7,-75.7c41.8,0 75.7,33.9 75.7,75.7Z" style="fill:#afb1b4;fill-rule:nonzero;"/><g id="words"><path d="M259.542,11.787c-0.2,0.1 -0.5,0.2 -0.9,0.2c-0.6,0 -1,-0.3 -1,-1.1c-0.7,0.8 -1.5,1.1 -2.5,1.1c-1.3,0 -2.4,-0.6 -2.4,-2c0,-1.6 1.2,-2 2.5,-2.2c1.3,-0.3 2.4,-0.2 2.4,-1.1c0,-1 -0.9,-1.2 -1.6,-1.2c-1,0 -1.8,0.3 -1.8,1.4l-1.2,0c0.1,-1.8 1.5,-2.4 3.1,-2.4c1.3,0 2.7,0.3 2.7,2l0,3.7c0,0.6 0,0.8 0.4,0.8c0.1,0 0.2,0 0.4,-0.1l0,0.9l-0.1,0Zm-1.9,-3.7c-0.5,0.3 -1.4,0.4 -2.2,0.5c-0.8,0.1 -1.5,0.4 -1.5,1.3c0,0.8 0.7,1.1 1.4,1.1c1.6,0 2.2,-1 2.2,-1.6l0,-1.3l0.1,0Z" style="fill:#010101;fill-rule:nonzero;"/><path d="M260.942,4.587l1.1,0l0,1.5c0.6,-1.2 1.4,-1.7 2.7,-1.7l0,1.3c-1.9,0 -2.6,1.1 -2.6,2.9l0,3.2l-1.2,0l0,-7.2Z" style="fill:#010101;fill-rule:nonzero;"/><path d="M267.542,4.587l1.4,0l0,1.1l-1.4,0l0,4.5c0,0.5 0.2,0.6 0.9,0.6l0.5,0l0,1l-0.9,0c-1.2,0 -1.7,-0.3 -1.7,-1.6l0,-4.6l-1.2,0l0,-1l1.2,0l0,-2.2l1.2,0l0,2.2Z" style="fill:#010101;fill-rule:nonzero;"/><path d="M271.842,3.287l-1.2,0l0,-1.5l1.2,0l0,1.5Zm-1.2,1.3l1.2,0l0,7.2l-1.2,0l0,-7.2Z" style="fill:#010101;fill-rule:nonzero;"/><path d="M274.742,9.487c0,1.1 1,1.4 1.9,1.4c0.7,0 1.8,-0.2 1.8,-1.1c0,-0.9 -1.2,-1.1 -2.4,-1.3c-1.2,-0.3 -2.4,-0.7 -2.4,-2c0,-1.5 1.4,-2.1 2.7,-2.1c1.6,0 2.9,0.5 3,2.3l-1.2,0c-0.1,-0.9 -0.9,-1.2 -1.7,-1.2c-0.7,0 -1.5,0.2 -1.5,0.9c0,0.9 1.3,1 2.4,1.3c1.2,0.3 2.4,0.7 2.4,2.1c0,1.7 -1.6,2.3 -3.1,2.3c-1.6,0 -3,-0.7 -3.1,-2.5l1.2,-0.1Z" style="fill:#010101;fill-rule:nonzero;"/><path d="M282.942,4.587l1.4,0l0,1.1l-1.4,0l0,4.5c0,0.5 0.2,0.6 0.9,0.6l0.5,0l0,1l-0.9,0c-1.2,0 -1.7,-0.3 -1.7,-1.6l0,-4.6l-1.2,0l0,-1l1.2,0l0,-2.2l1.2,0l0,2.2Z" style="fill:#010101;fill-rule:nonzero;"/><path d="M286.642,9.487c0,1.1 1,1.4 1.9,1.4c0.7,0 1.8,-0.2 1.8,-1.1c0,-0.9 -1.2,-1.1 -2.4,-1.3c-1.2,-0.3 -2.4,-0.7 -2.4,-2c0,-1.5 1.4,-2.1 2.7,-2.1c1.6,0 2.9,0.5 3,2.3l-1.2,0c-0.1,-0.9 -0.9,-1.2 -1.7,-1.2c-0.7,0 -1.5,0.2 -1.5,0.9c0,0.9 1.3,1 2.4,1.3c1.2,0.3 2.4,0.7 2.4,2.1c0,1.7 -1.6,2.3 -3.1,2.3c-1.6,0 -3,-0.7 -3.1,-2.5l1.2,-0.1Z" style="fill:#010101;fill-rule:nonzero;"/><path d="M258.042,37.687c-0.2,-0.9 -0.8,-1.4 -1.8,-1.4c-1.7,0 -2.3,1.4 -2.3,2.8c0,1.3 0.6,2.6 2.1,2.6c1.1,0 1.8,-0.7 2,-1.8l1.2,0c-0.3,1.8 -1.4,2.8 -3.2,2.8c-2.2,0 -3.4,-1.5 -3.4,-3.7c0,-2.2 1.1,-3.9 3.4,-3.9c1.6,0 3,0.8 3.1,2.5l-1.1,0l0,0.1Z" style="fill:#010101;fill-rule:nonzero;"/><path d="M264.042,35.187c2.3,0 3.5,1.7 3.5,3.8c0,2.1 -1.2,3.8 -3.5,3.8c-2.3,0 -3.5,-1.7 -3.5,-3.8c0,-2.1 1.2,-3.8 3.5,-3.8Zm0,6.5c1.2,0 2.3,-1 2.3,-2.7c0,-1.8 -1,-2.7 -2.3,-2.7c-1.2,0 -2.3,1 -2.3,2.7c0.1,1.7 1.1,2.7 2.3,2.7Z" style="fill:#010101;fill-rule:nonzero;"/><rect x="269.342" y="32.587" width="1.2" height="10" style="fill:#010101;fill-rule:nonzero;"/><rect x="272.742" y="32.587" width="1.2" height="10" style="fill:#010101;fill-rule:nonzero;"/><path d="M282.242,40.287c-0.3,1.6 -1.5,2.5 -3.1,2.5c-2.3,0 -3.4,-1.6 -3.5,-3.8c0,-2.2 1.4,-3.8 3.4,-3.8c2.6,0 3.3,2.4 3.3,4.1l-5.4,0c0,1.3 0.7,2.4 2.3,2.4c1,0 1.7,-0.5 1.9,-1.4l1.1,0Zm-1.2,-2c-0.1,-1.1 -0.9,-2 -2.1,-2c-1.2,0 -2,0.9 -2.1,2l4.2,0Z" style="fill:#010101;fill-rule:nonzero;"/><path d="M288.742,37.687c-0.2,-0.9 -0.8,-1.4 -1.8,-1.4c-1.7,0 -2.3,1.4 -2.3,2.8c0,1.3 0.6,2.6 2.1,2.6c1.1,0 1.8,-0.7 2,-1.8l1.2,0c-0.3,1.8 -1.4,2.8 -3.2,2.8c-2.2,0 -3.4,-1.5 -3.4,-3.7c0,-2.2 1.1,-3.9 3.4,-3.9c1.6,0 3,0.8 3.1,2.5l-1.1,0l0,0.1Z" style="fill:#010101;fill-rule:nonzero;"/><path d="M293.242,35.387l1.4,0l0,1.1l-1.4,0l0,4.5c0,0.5 0.2,0.6 0.9,0.6l0.5,0l0,1.1l-0.9,0c-1.2,0 -1.7,-0.3 -1.7,-1.6l0,-4.6l-1.2,0l0,-1.1l1.2,0l0,-2.2l1.2,0l0,2.2Z" style="fill:#010101;fill-rule:nonzero;"/><path d="M299.442,35.187c2.3,0 3.5,1.7 3.5,3.8c0,2.1 -1.2,3.8 -3.5,3.8c-2.3,0 -3.5,-1.7 -3.5,-3.8c0,-2.1 1.2,-3.8 3.5,-3.8Zm0,6.5c1.2,0 2.3,-1 2.3,-2.7c0,-1.8 -1,-2.7 -2.3,-2.7c-1.2,0 -2.3,1 -2.3,2.7c0.1,1.7 1.1,2.7 2.3,2.7Z" style="fill:#010101;fill-rule:nonzero;"/><path d="M304.642,35.387l1.1,0l0,1.5c0.6,-1.2 1.4,-1.7 2.7,-1.7l0,1.3c-1.9,0 -2.6,1.1 -2.6,2.9l0,3.2l-1.2,0l0,-7.2Z" style="fill:#010101;fill-rule:nonzero;"/><path d="M310.342,40.287c0,1.1 1,1.4 1.9,1.4c0.7,0 1.8,-0.2 1.8,-1.1c0,-0.9 -1.2,-1.1 -2.4,-1.3c-1.2,-0.3 -2.4,-0.7 -2.4,-2c0,-1.5 1.4,-2.1 2.7,-2.1c1.6,0 2.9,0.5 3,2.3l-1.2,0c-0.1,-0.9 -0.9,-1.2 -1.7,-1.2c-0.7,0 -1.5,0.2 -1.5,0.9c0,0.9 1.3,1 2.4,1.3c1.2,0.3 2.4,0.7 2.4,2.1c0,1.7 -1.6,2.3 -3.1,2.3c-1.6,0 -3,-0.7 -3.1,-2.5l1.2,0l0,-0.1l0,0Z" style="fill:#010101;fill-rule:nonzero;"/><path d="M258.042,68.487c-0.2,-0.9 -0.8,-1.4 -1.8,-1.4c-1.7,0 -2.3,1.4 -2.3,2.8c0,1.3 0.6,2.6 2.1,2.6c1.1,0 1.8,-0.7 2,-1.8l1.2,0c-0.3,1.8 -1.4,2.8 -3.2,2.8c-2.2,0 -3.4,-1.5 -3.4,-3.7c0,-2.2 1.1,-3.9 3.4,-3.9c1.6,0 3,0.8 3.1,2.5l-1.1,0.1Z" style="fill:#010101;fill-rule:nonzero;"/><path d="M264.042,65.987c2.3,0 3.5,1.7 3.5,3.8c0,2.1 -1.2,3.8 -3.5,3.8c-2.3,0 -3.5,-1.7 -3.5,-3.8c0,-2.1 1.2,-3.8 3.5,-3.8Zm0,6.5c1.2,0 2.3,-1 2.3,-2.7c0,-1.8 -1,-2.7 -2.3,-2.7c-1.2,0 -2.3,1 -2.3,2.7c0.1,1.7 1.1,2.7 2.3,2.7Z" style="fill:#010101;fill-rule:nonzero;"/><path d="M269.242,66.187l1.1,0l0,1.1c0.5,-0.9 1.3,-1.3 2.4,-1.3c1.9,0 2.5,1.1 2.5,2.6l0,4.8l-1.2,0l0,-4.9c0,-0.9 -0.6,-1.5 -1.5,-1.5c-1.4,0 -2.1,1 -2.1,2.3l0,4.1l-1.2,0l0,-7.2Z" style="fill:#010101;fill-rule:nonzero;"/><path d="M278.042,71.087c0,1.1 1,1.4 1.9,1.4c0.7,0 1.8,-0.2 1.8,-1.1c0,-0.9 -1.2,-1.1 -2.4,-1.3c-1.2,-0.3 -2.4,-0.7 -2.4,-2c0,-1.5 1.4,-2.1 2.7,-2.1c1.6,0 2.9,0.5 3,2.3l-1.2,0c-0.1,-0.9 -0.9,-1.2 -1.7,-1.2c-0.7,0 -1.5,0.2 -1.5,0.9c0,0.9 1.3,1 2.4,1.3c1.2,0.3 2.4,0.7 2.4,2.1c0,1.7 -1.6,2.3 -3.1,2.3c-1.6,0 -3,-0.7 -3.1,-2.5l1.2,0l0,-0.1l0,0Z" style="fill:#010101;fill-rule:nonzero;"/><path d="M290.642,73.387l-1.1,0l0,-1.1c-0.5,0.9 -1.3,1.3 -2.4,1.3c-1.9,0 -2.5,-1.1 -2.5,-2.6l0,-4.8l1.2,0l0,4.9c0,0.9 0.6,1.5 1.5,1.5c1.4,0 2.1,-1 2.1,-2.3l0,-4.1l1.2,0l0,7.2Z" style="fill:#010101;fill-rule:nonzero;"/><rect x="292.742" y="63.387" width="1.2" height="10" style="fill:#010101;fill-rule:nonzero;"/><path d="M297.742,66.187l1.4,0l0,1l-1.4,0l0,4.5c0,0.5 0.2,0.6 0.9,0.6l0.5,0l0,1.1l-0.9,0c-1.2,0 -1.7,-0.3 -1.7,-1.6l0,-4.6l-1.2,0l0,-1l1.2,0l0,-2.2l1.2,0l0,2.2Z" style="fill:#010101;fill-rule:nonzero;"/><path d="M307.142,73.387c-0.2,0.1 -0.5,0.2 -0.9,0.2c-0.6,0 -1,-0.3 -1,-1.1c-0.7,0.8 -1.5,1.1 -2.5,1.1c-1.3,0 -2.4,-0.6 -2.4,-2c0,-1.6 1.2,-2 2.5,-2.2c1.3,-0.3 2.4,-0.2 2.4,-1.1c0,-1 -0.9,-1.2 -1.6,-1.2c-1,0 -1.8,0.3 -1.8,1.4l-1.2,0c0.1,-1.8 1.5,-2.4 3.1,-2.4c1.3,0 2.7,0.3 2.7,2l0,3.7c0,0.6 0,0.8 0.4,0.8c0.1,0 0.2,0 0.4,-0.1l0,0.9l-0.1,0l0,0Zm-1.9,-3.7c-0.5,0.3 -1.4,0.4 -2.2,0.5c-0.8,0.1 -1.5,0.4 -1.5,1.3c0,0.8 0.7,1.1 1.4,1.1c1.6,0 2.2,-1 2.2,-1.6l0,-1.3l0.1,0Z" style="fill:#010101;fill-rule:nonzero;"/><path d="M308.542,66.187l1.1,0l0,1.1c0.5,-0.9 1.3,-1.3 2.4,-1.3c1.9,0 2.5,1.1 2.5,2.6l0,4.8l-1.2,0l0,-4.9c0,-0.9 -0.6,-1.5 -1.5,-1.5c-1.4,0 -2.1,1 -2.1,2.3l0,4.1l-1.2,0l0,-7.2Z" style="fill:#010101;fill-rule:nonzero;"/><path d="M318.242,66.187l1.4,0l0,1l-1.4,0l0,4.5c0,0.5 0.2,0.6 0.9,0.6l0.5,0l0,1.1l-0.9,0c-1.2,0 -1.7,-0.3 -1.7,-1.6l0,-4.6l-1.2,0l0,-1l1.2,0l0,-2.2l1.2,0l0,2.2Z" style="fill:#010101;fill-rule:nonzero;"/><path d="M322.042,71.087c0,1.1 1,1.4 1.9,1.4c0.7,0 1.8,-0.2 1.8,-1.1c0,-0.9 -1.2,-1.1 -2.4,-1.3c-1.2,-0.3 -2.4,-0.7 -2.4,-2c0,-1.5 1.4,-2.1 2.7,-2.1c1.6,0 2.9,0.5 3,2.3l-1.2,0c-0.1,-0.9 -0.9,-1.2 -1.7,-1.2c-0.7,0 -1.5,0.2 -1.5,0.9c0,0.9 1.3,1 2.4,1.3c1.2,0.3 2.4,0.7 2.4,2.1c0,1.7 -1.6,2.3 -3.1,2.3c-1.6,0 -3,-0.7 -3.1,-2.5l1.2,0l0,-0.1l0,0Z" style="fill:#010101;fill-rule:nonzero;"/><path d="M258.042,99.287c-0.2,-0.9 -0.8,-1.4 -1.8,-1.4c-1.7,0 -2.3,1.4 -2.3,2.8c0,1.3 0.6,2.6 2.1,2.6c1.1,0 1.8,-0.7 2,-1.8l1.2,0c-0.3,1.8 -1.4,2.8 -3.2,2.8c-2.2,0 -3.4,-1.5 -3.4,-3.7c0,-2.2 1.1,-3.9 3.4,-3.9c1.6,0 3,0.8 3.1,2.5l-1.1,0.1Z" style="fill:#010101;fill-rule:nonzero;"/><path d="M266.942,104.187l-1.1,0l0,-1.1c-0.5,0.9 -1.3,1.3 -2.4,1.3c-1.9,0 -2.5,-1.1 -2.5,-2.6l0,-4.8l1.2,0l0,4.9c0,0.9 0.6,1.5 1.5,1.5c1.4,0 2.1,-1 2.1,-2.3l0,-4.1l1.2,0l0,7.2Z" style="fill:#010101;fill-rule:nonzero;"/><path d="M268.942,96.987l1.1,0l0,1.5c0.6,-1.2 1.4,-1.7 2.7,-1.7l0,1.3c-1.9,0 -2.6,1.1 -2.6,2.9l0,3.2l-1.2,0l0,-7.2Z" style="fill:#010101;fill-rule:nonzero;"/><path d="M280.342,104.187c-0.2,0.1 -0.5,0.2 -0.9,0.2c-0.6,0 -1,-0.3 -1,-1.1c-0.7,0.8 -1.5,1.1 -2.5,1.1c-1.3,0 -2.4,-0.6 -2.4,-2c0,-1.6 1.2,-2 2.5,-2.2c1.3,-0.3 2.4,-0.2 2.4,-1.1c0,-1 -0.9,-1.2 -1.6,-1.2c-1,0 -1.8,0.3 -1.8,1.4l-1.2,0c0.1,-1.8 1.5,-2.4 3.1,-2.4c1.3,0 2.7,0.3 2.7,2l0,3.7c0,0.6 0,0.8 0.4,0.8c0.1,0 0.2,0 0.4,-0.1l0,0.9l-0.1,0l0,0Zm-1.9,-3.7c-0.5,0.3 -1.4,0.4 -2.2,0.5c-0.8,0.1 -1.5,0.4 -1.5,1.3c0,0.8 0.7,1.1 1.4,1.1c1.6,0 2.2,-1 2.2,-1.6l0,-1.3l0.1,0Z" style="fill:#010101;fill-rule:nonzero;"/><path d="M283.442,96.987l1.4,0l0,1l-1.4,0l0,4.5c0,0.5 0.2,0.6 0.9,0.6l0.5,0l0,1.1l-0.9,0c-1.2,0 -1.7,-0.3 -1.7,-1.6l0,-4.6l-1.3,0l0,-1l1.2,0l0,-2.2l1.2,0l0.1,2.2Z" style="fill:#010101;fill-rule:nonzero;"/><path d="M289.542,96.787c2.3,0 3.5,1.7 3.5,3.8c0,2.1 -1.2,3.8 -3.5,3.8c-2.3,0 -3.5,-1.7 -3.5,-3.8c0,-2.1 1.2,-3.8 3.5,-3.8Zm0,6.5c1.2,0 2.3,-1 2.3,-2.7c0,-1.8 -1,-2.7 -2.3,-2.7c-1.2,0 -2.3,1 -2.3,2.7c0.1,1.7 1.1,2.7 2.3,2.7Z" style="fill:#010101;fill-rule:nonzero;"/><path d="M294.742,96.987l1.1,0l0,1.5c0.6,-1.2 1.4,-1.7 2.7,-1.7l0,1.3c-1.9,0 -2.6,1.1 -2.6,2.9l0,3.2l-1.2,0l0,-7.2Z" style="fill:#010101;fill-rule:nonzero;"/><path d="M300.442,101.887c0,1.1 1,1.4 1.9,1.4c0.7,0 1.8,-0.2 1.8,-1.1c0,-0.9 -1.2,-1.1 -2.4,-1.3c-1.2,-0.3 -2.4,-0.7 -2.4,-2c0,-1.5 1.4,-2.1 2.7,-2.1c1.6,0 2.9,0.5 3,2.3l-1.2,0c-0.1,-0.9 -0.9,-1.2 -1.7,-1.2c-0.7,0 -1.5,0.2 -1.5,0.9c0,0.9 1.3,1 2.4,1.3c1.2,0.3 2.4,0.7 2.4,2.1c0,1.7 -1.6,2.3 -3.1,2.3c-1.6,0 -3,-0.7 -3.1,-2.5l1.2,0l0,-0.1l0,0Z" style="fill:#010101;fill-rule:nonzero;"/><path d="M259.442,134.387c0,2.4 -1.1,3.6 -3.4,3.6c-1.4,0 -2.9,-0.5 -3,-2.1l1.2,0c0.1,0.9 1.1,1.2 1.9,1.2c1.6,0 2.2,-1.1 2.2,-2.7l0,-0.6c-0.4,0.9 -1.3,1.3 -2.3,1.3c-2.2,0 -3.2,-1.7 -3.2,-3.7c0,-1.7 0.8,-3.8 3.3,-3.8c0.9,0 1.7,0.4 2.2,1.2l0,-1l1.1,0l0,6.6Zm-1.2,-3.2c0,-1.3 -0.6,-2.6 -2.1,-2.6c-1.5,0 -2.1,1.2 -2.1,2.6c0,1.3 0.5,2.8 2,2.8c1.6,0 2.2,-1.4 2.2,-2.8Z" style="fill:#010101;fill-rule:nonzero;"/><path d="M267.842,134.987c-0.2,0.1 -0.5,0.2 -0.9,0.2c-0.6,0 -1,-0.3 -1,-1.1c-0.7,0.8 -1.5,1.1 -2.5,1.1c-1.3,0 -2.4,-0.6 -2.4,-2c0,-1.6 1.2,-2 2.5,-2.2c1.3,-0.3 2.4,-0.2 2.4,-1.1c0,-1 -0.9,-1.2 -1.6,-1.2c-1,0 -1.8,0.3 -1.8,1.4l-1.2,0c0.1,-1.8 1.5,-2.4 3.1,-2.4c1.3,0 2.7,0.3 2.7,2l0,3.7c0,0.6 0,0.8 0.4,0.8c0.1,0 0.2,0 0.4,-0.1l0,0.9l-0.1,0l0,0Zm-1.9,-3.7c-0.5,0.3 -1.4,0.4 -2.2,0.5c-0.8,0.1 -1.5,0.4 -1.5,1.3c0,0.8 0.7,1.1 1.4,1.1c1.6,0 2.2,-1 2.2,-1.6l0,-1.3l0.1,0Z" style="fill:#010101;fill-rule:nonzero;"/><rect x="269.342" y="124.987" width="1.2" height="10" style="fill:#010101;fill-rule:nonzero;"/><rect x="272.742" y="124.987" width="1.2" height="10" style="fill:#010101;fill-rule:nonzero;"/><path d="M282.242,132.687c-0.3,1.6 -1.5,2.5 -3.1,2.5c-2.3,0 -3.4,-1.6 -3.5,-3.8c0,-2.2 1.4,-3.8 3.4,-3.8c2.6,0 3.3,2.4 3.3,4.1l-5.4,0c0,1.3 0.7,2.4 2.3,2.4c1,0 1.7,-0.5 1.9,-1.4l1.1,0Zm-1.2,-2c-0.1,-1.1 -0.9,-2 -2.1,-2c-1.2,0 -2,0.9 -2.1,2l4.2,0Z" style="fill:#010101;fill-rule:nonzero;"/><path d="M283.842,127.787l1.1,0l0,1.5c0.6,-1.2 1.4,-1.7 2.7,-1.7l0,1.3c-1.9,0 -2.6,1.1 -2.6,2.9l0,3.2l-1.2,0l0,-7.2Z" style="fill:#010101;fill-rule:nonzero;"/><path d="M290.042,126.487l-1.2,0l0,-1.5l1.2,0l0,1.5Zm-1.2,1.3l1.2,0l0,7.2l-1.2,0l0,-7.2Z" style="fill:#010101;fill-rule:nonzero;"/><path d="M298.342,132.687c-0.3,1.6 -1.5,2.5 -3.1,2.5c-2.3,0 -3.4,-1.6 -3.5,-3.8c0,-2.2 1.4,-3.8 3.4,-3.8c2.6,0 3.3,2.4 3.3,4.1l-5.4,0c0,1.3 0.7,2.4 2.3,2.4c1,0 1.7,-0.5 1.9,-1.4l1.1,0Zm-1.1,-2c-0.1,-1.1 -0.9,-2 -2.1,-2c-1.2,0 -2,0.9 -2.1,2l4.2,0Z" style="fill:#010101;fill-rule:nonzero;"/><path d="M300.742,132.687c0,1.1 1,1.4 1.9,1.4c0.7,0 1.8,-0.2 1.8,-1.1c0,-0.9 -1.2,-1.1 -2.4,-1.3c-1.2,-0.3 -2.4,-0.7 -2.4,-2c0,-1.5 1.4,-2.1 2.7,-2.1c1.6,0 2.9,0.5 3,2.3l-1.2,0c-0.1,-0.9 -0.9,-1.2 -1.7,-1.2c-0.7,0 -1.5,0.2 -1.5,0.9c0,0.9 1.3,1 2.4,1.3c1.2,0.3 2.4,0.7 2.4,2.1c0,1.7 -1.6,2.3 -3.1,2.3c-1.6,0 -3,-0.7 -3.1,-2.5l1.2,-0.1Z" style="fill:#010101;fill-rule:nonzero;"/><path d="M254.442,157.287l-1.2,0l0,-1.5l1.2,0l0,1.5Zm-1.2,1.3l1.2,0l0,7.2l-1.2,0l0,-7.2Z" style="fill:#010101;fill-rule:nonzero;"/><path d="M256.542,158.587l1.1,0l0,1.1c0.5,-0.9 1.3,-1.3 2.4,-1.3c1.9,0 2.5,1.1 2.5,2.6l0,4.8l-1.2,0l0,-4.9c0,-0.9 -0.6,-1.5 -1.5,-1.5c-1.4,0 -2.1,1 -2.1,2.3l0,4.1l-1.2,0l0,-7.2Z" style="fill:#010101;fill-rule:nonzero;"/><path d="M265.342,163.487c0,1.1 1,1.4 1.9,1.4c0.7,0 1.8,-0.2 1.8,-1.1c0,-0.9 -1.2,-1.1 -2.4,-1.3c-1.2,-0.3 -2.4,-0.7 -2.4,-2c0,-1.5 1.4,-2.1 2.7,-2.1c1.6,0 2.9,0.5 3,2.3l-1.2,0c-0.1,-0.9 -0.9,-1.2 -1.7,-1.2c-0.7,0 -1.5,0.2 -1.5,0.9c0,0.9 1.3,1 2.4,1.3c1.2,0.3 2.4,0.7 2.4,2.1c0,1.7 -1.6,2.3 -3.1,2.3c-1.6,0 -3,-0.7 -3.1,-2.5l1.2,-0.1Z" style="fill:#010101;fill-rule:nonzero;"/><path d="M273.542,158.587l1.4,0l0,1.1l-1.4,0l0,4.5c0,0.5 0.2,0.6 0.9,0.6l0.5,0l0,1.1l-0.9,0c-1.2,0 -1.7,-0.3 -1.7,-1.6l0,-4.6l-1.2,0l0,-1.1l1.2,0l0,-2.2l1.2,0l0,2.2Z" style="fill:#010101;fill-rule:nonzero;"/><path d="M277.842,157.287l-1.2,0l0,-1.5l1.2,0l0,1.5Zm-1.2,1.3l1.2,0l0,7.2l-1.2,0l0,-7.2Z" style="fill:#010101;fill-rule:nonzero;"/><path d="M281.642,158.587l1.4,0l0,1.1l-1.4,0l0,4.5c0,0.5 0.2,0.6 0.9,0.6l0.5,0l0,1.1l-0.9,0c-1.2,0 -1.7,-0.3 -1.7,-1.6l0,-4.6l-1.2,0l0,-1.1l1.2,0l0,-2.2l1.2,0l0,2.2Z" style="fill:#010101;fill-rule:nonzero;"/><path d="M290.642,165.787l-1.1,0l0,-1.1c-0.5,0.9 -1.3,1.3 -2.4,1.3c-1.9,0 -2.5,-1.1 -2.5,-2.6l0,-4.8l1.2,0l0,4.9c0,0.9 0.6,1.5 1.5,1.5c1.4,0 2.1,-1 2.1,-2.3l0,-4.1l1.2,0l0,7.2Z" style="fill:#010101;fill-rule:nonzero;"/><path d="M294.342,158.587l1.4,0l0,1.1l-1.4,0l0,4.5c0,0.5 0.2,0.6 0.9,0.6l0.5,0l0,1.1l-0.8,0c-1.2,0 -1.7,-0.3 -1.7,-1.6l0,-4.6l-1.3,0l0,-1.1l1.2,0l0,-2.2l1.2,0l0,2.2Z" style="fill:#010101;fill-rule:nonzero;"/><path d="M298.642,157.287l-1.2,0l0,-1.5l1.2,0l0,1.5Zm-1.2,1.3l1.2,0l0,7.2l-1.2,0l0,-7.2Z" style="fill:#010101;fill-rule:nonzero;"/><path d="M303.942,158.387c2.3,0 3.5,1.7 3.5,3.8c0,2.1 -1.2,3.8 -3.5,3.8c-2.3,0 -3.5,-1.7 -3.5,-3.8c0,-2.1 1.2,-3.8 3.5,-3.8Zm0,6.5c1.2,0 2.3,-1 2.3,-2.7c0,-1.8 -1,-2.7 -2.3,-2.7c-1.2,0 -2.3,1 -2.3,2.7c0,1.7 1,2.7 2.3,2.7Z" style="fill:#010101;fill-rule:nonzero;"/><path d="M309.142,158.587l1.1,0l0,1.1c0.5,-0.9 1.3,-1.3 2.4,-1.3c1.9,0 2.5,1.1 2.5,2.6l0,4.8l-1.2,0l0,-4.9c0,-0.9 -0.6,-1.5 -1.5,-1.5c-1.4,0 -2.1,1 -2.1,2.3l0,4.1l-1.2,0l0,-7.2Z" style="fill:#010101;fill-rule:nonzero;"/><path d="M317.942,163.487c0,1.1 1,1.4 1.9,1.4c0.7,0 1.8,-0.2 1.8,-1.1c0,-0.9 -1.2,-1.1 -2.4,-1.3c-1.2,-0.3 -2.4,-0.7 -2.4,-2c0,-1.5 1.4,-2.1 2.7,-2.1c1.6,0 2.9,0.5 3,2.3l-1.2,0c-0.1,-0.9 -0.9,-1.2 -1.7,-1.2c-0.7,0 -1.5,0.2 -1.5,0.9c0,0.9 1.3,1 2.4,1.3c1.2,0.3 2.4,0.7 2.4,2.1c0,1.7 -1.6,2.3 -3.1,2.3c-1.6,0 -3,-0.7 -3.1,-2.5l1.2,-0.1Z" style="fill:#010101;fill-rule:nonzero;"/><path d="M253.242,189.387l1.2,0l0,1c0.4,-0.8 1.3,-1.1 2.3,-1.1c2.2,0 3.3,1.8 3.3,3.8c0,2 -1.1,3.8 -3.3,3.8c-0.7,0 -1.8,-0.3 -2.3,-1.1l0,3.7l-1.2,0l0,-10.1Zm3.3,0.8c-1.6,0 -2.2,1.4 -2.2,2.7c0,1.4 0.6,2.7 2.3,2.7c1.6,0 2.2,-1.4 2.2,-2.8c0,-1.2 -0.7,-2.6 -2.3,-2.6Z" style="fill:#010101;fill-rule:nonzero;"/><path d="M261.642,189.387l1.1,0l0,1.5c0.6,-1.2 1.4,-1.7 2.7,-1.7l0,1.3c-1.9,0 -2.6,1.1 -2.6,2.9l0,3.2l-1.2,0l0,-7.2Z" style="fill:#010101;fill-rule:nonzero;"/><path d="M267.942,188.087l-1.2,0l0,-1.5l1.2,0l0,1.5Zm-1.2,1.3l1.2,0l0,7.2l-1.2,0l0,-7.2Z" style="fill:#010101;fill-rule:nonzero;"/><path d="M273.342,196.587l-1.3,0l-2.7,-7.2l1.3,0l2,6l2,-6l1.2,0l-2.5,7.2Z" style="fill:#010101;fill-rule:nonzero;"/><path d="M283.742,196.587c-0.2,0.1 -0.5,0.2 -0.9,0.2c-0.6,0 -1,-0.3 -1,-1.1c-0.7,0.8 -1.5,1.1 -2.5,1.1c-1.3,0 -2.4,-0.6 -2.4,-2c0,-1.6 1.2,-2 2.5,-2.2c1.3,-0.3 2.4,-0.2 2.4,-1.1c0,-1 -0.9,-1.2 -1.6,-1.2c-1,0 -1.8,0.3 -1.8,1.4l-1.2,0c0.1,-1.8 1.5,-2.4 3.1,-2.4c1.3,0 2.7,0.3 2.7,2l0,3.7c0,0.6 0,0.8 0.4,0.8c0.1,0 0.2,0 0.4,-0.1l0,0.9l-0.1,0l0,0Zm-1.9,-3.7c-0.5,0.3 -1.4,0.4 -2.2,0.5c-0.8,0.1 -1.5,0.4 -1.5,1.3c0,0.8 0.7,1.1 1.4,1.1c1.6,0 2.2,-1 2.2,-1.6l0,-1.3l0.1,0Z" style="fill:#010101;fill-rule:nonzero;"/><path d="M286.842,189.387l1.4,0l0,1.1l-1.4,0l0,4.5c0,0.5 0.2,0.6 0.9,0.6l0.5,0l0,1.1l-0.9,0c-1.2,0 -1.7,-0.3 -1.7,-1.6l0,-4.6l-1.2,0l0,-1.1l1.2,0l0,-2.2l1.2,0l0,2.2Z" style="fill:#010101;fill-rule:nonzero;"/><path d="M296.042,194.287c-0.3,1.6 -1.5,2.5 -3.1,2.5c-2.3,0 -3.4,-1.6 -3.5,-3.8c0,-2.2 1.4,-3.8 3.4,-3.8c2.6,0 3.3,2.4 3.3,4.1l-5.4,0c0,1.3 0.7,2.4 2.3,2.4c1,0 1.7,-0.5 1.9,-1.4l1.1,0Zm-1.2,-2c-0.1,-1.1 -0.9,-2 -2.1,-2c-1.2,0 -2,0.9 -2.1,2l4.2,0Z" style="fill:#010101;fill-rule:nonzero;"/><path d="M308.242,196.587l-1.2,0l0,-1c-0.4,0.8 -1.3,1.1 -2.3,1.1c-2.2,0 -3.3,-1.8 -3.3,-3.8c0,-2 1.1,-3.8 3.3,-3.8c0.7,0 1.8,0.3 2.3,1.1l0,-3.7l1.2,0l0,10.1Zm-3.3,-0.9c1.6,0 2.2,-1.4 2.2,-2.7c0,-1.4 -0.6,-2.7 -2.3,-2.7c-1.6,0 -2.2,1.4 -2.2,2.8c0,1.3 0.7,2.6 2.3,2.6Z" style="fill:#010101;fill-rule:nonzero;"/><path d="M316.542,194.287c-0.3,1.6 -1.5,2.5 -3.1,2.5c-2.3,0 -3.4,-1.6 -3.5,-3.8c0,-2.2 1.4,-3.8 3.4,-3.8c2.6,0 3.3,2.4 3.3,4.1l-5.4,0c0,1.3 0.7,2.4 2.3,2.4c1,0 1.7,-0.5 1.9,-1.4l1.1,0Zm-1.1,-2c-0.1,-1.1 -0.9,-2 -2.1,-2c-1.2,0 -2,0.9 -2.1,2l4.2,0Z" style="fill:#010101;fill-rule:nonzero;"/><path d="M324.642,196.587c-0.2,0.1 -0.5,0.2 -0.9,0.2c-0.6,0 -1,-0.3 -1,-1.1c-0.7,0.8 -1.5,1.1 -2.5,1.1c-1.3,0 -2.4,-0.6 -2.4,-2c0,-1.6 1.2,-2 2.5,-2.2c1.3,-0.3 2.4,-0.2 2.4,-1.1c0,-1 -0.9,-1.2 -1.6,-1.2c-1,0 -1.8,0.3 -1.8,1.4l-1.2,0c0.1,-1.8 1.5,-2.4 3.1,-2.4c1.3,0 2.7,0.3 2.7,2l0,3.7c0,0.6 0,0.8 0.4,0.8c0.1,0 0.2,0 0.4,-0.1l0,0.9l-0.1,0l0,0Zm-2,-3.7c-0.5,0.3 -1.4,0.4 -2.2,0.5c-0.8,0.1 -1.5,0.4 -1.5,1.3c0,0.8 0.7,1.1 1.4,1.1c1.6,0 2.2,-1 2.2,-1.6l0,-1.3l0.1,0Z" style="fill:#010101;fill-rule:nonzero;"/><rect x="326.042" y="186.587" width="1.2" height="10" style="fill:#010101;fill-rule:nonzero;"/><path d="M335.542,194.287c-0.3,1.6 -1.5,2.5 -3.1,2.5c-2.3,0 -3.4,-1.6 -3.5,-3.8c0,-2.2 1.4,-3.8 3.4,-3.8c2.6,0 3.3,2.4 3.3,4.1l-5.4,0c0,1.3 0.7,2.4 2.3,2.4c1,0 1.7,-0.5 1.9,-1.4l1.1,0Zm-1.1,-2c-0.1,-1.1 -0.9,-2 -2.1,-2c-1.2,0 -2,0.9 -2.1,2l4.2,0Z" style="fill:#010101;fill-rule:nonzero;"/><path d="M337.142,189.387l1.1,0l0,1.5c0.6,-1.2 1.4,-1.7 2.7,-1.7l0,1.3c-1.9,0 -2.6,1.1 -2.6,2.9l0,3.2l-1.2,0l0,-7.2Z" style="fill:#010101;fill-rule:nonzero;"/><path d="M342.842,194.287c0,1.1 1,1.4 1.9,1.4c0.7,0 1.8,-0.2 1.8,-1.1c0,-0.9 -1.2,-1.1 -2.4,-1.3c-1.2,-0.3 -2.4,-0.7 -2.4,-2c0,-1.5 1.4,-2.1 2.7,-2.1c1.6,0 2.9,0.5 3,2.3l-1.2,0c-0.1,-0.9 -0.9,-1.2 -1.7,-1.2c-0.7,0 -1.5,0.2 -1.5,0.9c0,0.9 1.3,1 2.4,1.3c1.2,0.3 2.4,0.7 2.4,2.1c0,1.7 -1.6,2.3 -3.1,2.3c-1.6,0 -3,-0.7 -3.1,-2.5l1.2,-0.1Z" style="fill:#010101;fill-rule:nonzero;"/><path d="M253.842,225.087c0,1.1 1,1.4 1.9,1.4c0.7,0 1.8,-0.2 1.8,-1.1c0,-0.9 -1.2,-1.1 -2.4,-1.3c-1.2,-0.3 -2.4,-0.7 -2.4,-2c0,-1.5 1.4,-2.1 2.7,-2.1c1.6,0 2.9,0.5 3,2.3l-1.2,0c-0.1,-0.9 -0.9,-1.2 -1.7,-1.2c-0.7,0 -1.5,0.2 -1.5,0.9c0,0.9 1.3,1 2.4,1.3c1.2,0.3 2.4,0.7 2.4,2.1c0,1.7 -1.6,2.3 -3.1,2.3c-1.6,0 -3,-0.7 -3.1,-2.5l1.2,-0.1Z" style="fill:#010101;fill-rule:nonzero;"/><path d="M262.042,220.187l1.4,0l0,1l-1.4,0l0,4.5c0,0.5 0.2,0.6 0.9,0.6l0.5,0l0,1.1l-0.9,0c-1.2,0 -1.7,-0.3 -1.7,-1.6l0,-4.6l-1.2,0l0,-1l1.2,0l0,-2.2l1.2,0l0,2.2Z" style="fill:#010101;fill-rule:nonzero;"/><path d="M271.142,227.387l-1.1,0l0,-1.1c-0.5,0.9 -1.3,1.3 -2.4,1.3c-1.9,0 -2.5,-1.1 -2.5,-2.6l0,-4.8l1.2,0l0,4.9c0,0.9 0.6,1.5 1.5,1.5c1.4,0 2.1,-1 2.1,-2.3l0,-4.1l1.2,0l0,7.2Z" style="fill:#010101;fill-rule:nonzero;"/><path d="M279.642,227.387l-1.2,0l0,-1c-0.4,0.8 -1.3,1.1 -2.3,1.1c-2.2,0 -3.3,-1.8 -3.3,-3.8c0,-2 1.1,-3.8 3.3,-3.8c0.7,0 1.8,0.3 2.3,1.1l0,-3.7l1.2,0l0,10.1Zm-3.3,-0.9c1.6,0 2.2,-1.4 2.2,-2.7c0,-1.4 -0.6,-2.7 -2.3,-2.7c-1.6,0 -2.2,1.4 -2.2,2.8c0,1.3 0.7,2.6 2.3,2.6Z" style="fill:#010101;fill-rule:nonzero;"/><path d="M283.042,218.887l-1.2,0l0,-1.5l1.2,0l0,1.5Zm-1.2,1.3l1.2,0l0,7.2l-1.2,0l0,-7.2Z" style="fill:#010101;fill-rule:nonzero;"/><path d="M288.242,219.987c2.3,0 3.5,1.7 3.5,3.8c0,2.1 -1.2,3.8 -3.5,3.8c-2.3,0 -3.5,-1.7 -3.5,-3.8c0,-2.1 1.2,-3.8 3.5,-3.8Zm0,6.5c1.2,0 2.3,-1 2.3,-2.7c0,-1.8 -1,-2.7 -2.3,-2.7c-1.2,0 -2.3,1 -2.3,2.7c0.1,1.7 1.1,2.7 2.3,2.7Z" style="fill:#010101;fill-rule:nonzero;"/><path d="M294.242,225.087c0,1.1 1,1.4 1.9,1.4c0.7,0 1.8,-0.2 1.8,-1.1c0,-0.9 -1.2,-1.1 -2.4,-1.3c-1.2,-0.3 -2.4,-0.7 -2.4,-2c0,-1.5 1.4,-2.1 2.7,-2.1c1.6,0 2.9,0.5 3,2.3l-1.2,0c-0.1,-0.9 -0.9,-1.2 -1.7,-1.2c-0.7,0 -1.5,0.2 -1.5,0.9c0,0.9 1.3,1 2.4,1.3c1.2,0.3 2.4,0.7 2.4,2.1c0,1.7 -1.6,2.3 -3.1,2.3c-1.6,0 -3,-0.7 -3.1,-2.5l1.2,-0.1Z" style="fill:#010101;fill-rule:nonzero;"/></g><g id="dots"><path d="M116.002,218.036c2.178,-0.793 4.591,0.332 5.383,2.51c0.793,2.179 -0.332,4.591 -2.51,5.384c-2.178,0.792 -4.59,-0.332 -5.383,-2.511c-0.793,-2.178 0.332,-4.59 2.51,-5.383Z" style="fill:#eb2227;"/><path d="M159.441,187.977c1.775,-1.49 4.427,-1.258 5.917,0.517c1.49,1.776 1.258,4.427 -0.518,5.917c-1.775,1.49 -4.427,1.259 -5.917,-0.517c-1.49,-1.776 -1.258,-4.427 0.518,-5.917Z" style="fill:#eb2227;"/><path d="M178.98,158.166c1.159,-2.007 3.73,-2.696 5.737,-1.537c2.008,1.159 2.697,3.73 1.538,5.737c-1.159,2.008 -3.73,2.696 -5.738,1.537c-2.007,-1.159 -2.696,-3.729 -1.537,-5.737Z" style="fill:#eb2227;"/><path d="M187.267,128.743c0.403,-2.283 2.583,-3.81 4.866,-3.407c2.282,0.403 3.809,2.583 3.406,4.866c-0.402,2.282 -2.583,3.809 -4.865,3.406c-2.283,-0.402 -3.81,-2.583 -3.407,-4.865Z" style="fill:#eb2227;"/><path d="M190.615,94.451c2.282,-0.402 4.463,1.124 4.865,3.407c0.403,2.283 -1.123,4.463 -3.406,4.866c-2.283,0.402 -4.463,-1.124 -4.866,-3.407c-0.403,-2.283 1.124,-4.463 3.407,-4.866Z" style="fill:#eb2227;"/><path d="M180.537,64.163c2.007,-1.159 4.578,-0.471 5.737,1.537c1.159,2.007 0.47,4.578 -1.537,5.737c-2.007,1.159 -4.578,0.47 -5.737,-1.537c-1.159,-2.008 -0.47,-4.578 1.537,-5.737Z" style="fill:#eb2227;"/><path d="M159.695,34.219c1.49,-1.776 4.141,-2.008 5.917,-0.518c1.775,1.49 2.007,4.142 0.517,5.917c-1.49,1.776 -4.141,2.008 -5.917,0.518c-1.775,-1.49 -2.007,-4.142 -0.517,-5.917Z" style="fill:#eb2227;"/><path d="M113.44,4.533c0.793,-2.178 3.205,-3.303 5.383,-2.51c2.178,0.792 3.303,3.204 2.51,5.383c-0.792,2.178 -3.204,3.303 -5.383,2.51c-2.178,-0.793 -3.303,-3.205 -2.51,-5.383Z" style="fill:#eb2227;"/></g><path id="thick-circle" d="M77.935,189.787c-41.938,0 -76,-34.062 -76,-76c0,-41.839 34.062,-76 76,-76c41.938,0 76,34.062 76,76c0,41.938 -34.062,76 -76,76Z" style="fill:#fff;fill-rule:nonzero;stroke:#afb1b4;stroke-width:3px;"/></svg>