<?xml version="1.0" encoding="UTF-8" standalone="no"?><!DOCTYPE svg PUBLIC "-//W3C//DTD SVG 1.1//EN" "http://www.w3.org/Graphics/SVG/1.1/DTD/svg11.dtd"><svg width="100%" height="100%" viewBox="0 0 343 105" version="1.1" xmlns="http://www.w3.org/2000/svg" xmlns:xlink="http://www.w3.org/1999/xlink" xml:space="preserve" style="fill-rule:evenodd;clip-rule:evenodd;stroke-linejoin:round;stroke-miterlimit:1.41421;"><rect id="Artboard1" x="0" y="0" width="342.635" height="104.971" style="fill:none;"/><g id="dark-gray"><path d="M111.503,90.974c-0.4,0.1 -0.9,0.1 -1.4,0.1c-1.3,0 -2.3,-0.4 -3.1,-1.2c-0.8,-0.8 -1.2,-1.9 -1.2,-3.3c0,-1.4 0.4,-2.5 1.2,-3.4c0.8,-0.9 1.7,-1.3 3,-1.3c0.5,0 0.9,0 1.3,0.1c0.4,0.1 1,0.3 1.6,0.6l0.3,0.1l0,-1.9l-0.2,-0.1c-0.7,-0.2 -1.2,-0.4 -1.7,-0.4c-0.5,-0.1 -1,-0.1 -1.5,-0.1c-0.9,0 -1.7,0.2 -2.4,0.5c-0.7,0.3 -1.4,0.8 -1.9,1.3c-0.5,0.6 -0.9,1.3 -1.2,2.1c-0.3,0.8 -0.4,1.7 -0.4,2.6c0,1.8 0.6,3.3 1.6,4.5c1.1,1.1 2.5,1.7 4.3,1.7c0.5,0 1.1,0 1.6,-0.1c0.5,-0.1 1.1,-0.3 1.8,-0.5l0.2,-0.1l0,-1.9l-0.3,0.1c-0.6,0.3 -1.2,0.5 -1.6,0.6l0,0Z" style="fill:#414042;fill-rule:nonzero;"/><path d="M130.203,81.974c-0.6,-0.6 -1.2,-1 -2,-1.3c-1.5,-0.6 -3.4,-0.6 -4.9,0c-0.8,0.3 -1.4,0.8 -2,1.3c-0.6,0.6 -1,1.3 -1.3,2c-0.3,0.8 -0.5,1.6 -0.5,2.5c0,0.9 0.2,1.7 0.5,2.5c0.3,0.8 0.7,1.5 1.3,2c0.6,0.6 1.2,1 2,1.3c0.8,0.3 1.6,0.5 2.4,0.5c0.9,0 1.7,-0.2 2.5,-0.5c0.7,-0.3 1.4,-0.8 2,-1.3c0.6,-0.6 1,-1.2 1.3,-2c0.3,-0.8 0.5,-1.6 0.5,-2.5c0,-0.9 -0.2,-1.7 -0.5,-2.5c-0.3,-0.7 -0.8,-1.4 -1.3,-2Zm-0.1,4.5c0,0.7 -0.1,1.3 -0.3,1.8c-0.2,0.6 -0.5,1 -0.9,1.4c-0.4,0.4 -0.9,0.7 -1.4,1c-0.5,0.2 -1.1,0.3 -1.7,0.3c-1.3,0 -2.3,-0.4 -3.1,-1.3c-0.4,-0.4 -0.7,-0.9 -0.9,-1.5c-0.2,-0.6 -0.3,-1.2 -0.3,-1.8c0,-0.7 0.1,-1.3 0.3,-1.8c0.2,-0.6 0.5,-1.1 0.9,-1.5c0.8,-0.9 1.9,-1.3 3.1,-1.3c0.6,0 1.2,0.1 1.7,0.3c0.5,0.2 1,0.6 1.4,1c0.4,0.4 0.7,0.9 0.9,1.5c0.2,0.7 0.3,1.3 0.3,1.9l0,0Z" style="fill:#414042;fill-rule:nonzero;"/><rect x="139.103" y="74.374" width="1.7" height="18.2" style="fill:#414042;"/><rect x="148.703" y="74.374" width="1.7" height="18.2" style="fill:#414042;"/><path d="M166.903,81.574c-0.5,-0.5 -1.1,-0.9 -1.8,-1.1c-1.4,-0.5 -2.9,-0.5 -4.2,0.1c-0.7,0.3 -1.3,0.7 -1.8,1.3c-0.5,0.5 -0.9,1.2 -1.2,2c-0.3,0.8 -0.4,1.6 -0.4,2.5c0,0.9 0.2,1.8 0.4,2.6c0.3,0.8 0.7,1.5 1.3,2.1c0.5,0.6 1.2,1 1.9,1.4c0.7,0.3 1.6,0.5 2.4,0.5c1.7,0 3.3,-0.5 4.7,-1.6l0.1,-0.1l0,-2.1l-0.4,0.3c-0.7,0.6 -1.4,1 -2.1,1.3c-1.2,0.5 -2.5,0.6 -3.8,0.1c-0.5,-0.2 -1,-0.5 -1.4,-0.9c-0.4,-0.4 -0.7,-0.9 -1,-1.4c-0.2,-0.5 -0.3,-1.1 -0.3,-1.7l0,-0.3l0,-0.1l9.2,0l0,-0.3c0,-1 -0.2,-1.8 -0.5,-2.6c-0.2,-0.8 -0.6,-1.5 -1.1,-2l0,0Zm-7.3,3.2c0.2,-0.9 0.6,-1.5 1.2,-2.1c0.7,-0.6 1.4,-0.8 2.3,-0.8c1.8,0 2.9,1 3.4,2.9l-6.9,0l0,0Z" style="fill:#414042;fill-rule:nonzero;"/><path d="M182.303,90.974c-0.4,0.1 -0.9,0.1 -1.4,0.1c-1.3,0 -2.3,-0.4 -3.1,-1.2c-0.8,-0.8 -1.2,-1.9 -1.2,-3.3c0,-1.4 0.4,-2.5 1.2,-3.4c0.8,-0.9 1.7,-1.3 3,-1.3c0.5,0 0.9,0 1.3,0.1c0.4,0.1 1,0.3 1.6,0.6l0.3,0.1l0,-1.9l-0.2,-0.1c-0.7,-0.2 -1.2,-0.4 -1.7,-0.4c-0.5,-0.1 -1,-0.1 -1.5,-0.1c-0.9,0 -1.7,0.2 -2.4,0.5c-0.7,0.3 -1.4,0.8 -1.9,1.3c-0.5,0.6 -0.9,1.3 -1.2,2.1c-0.3,0.8 -0.4,1.7 -0.4,2.6c0,1.8 0.6,3.3 1.6,4.5c1.1,1.1 2.5,1.7 4.3,1.7c0.5,0 1.1,0 1.6,-0.1c0.5,-0.1 1.1,-0.3 1.8,-0.5l0.2,-0.1l0,-1.9l-0.3,0.1c-0.6,0.3 -1.1,0.5 -1.6,0.6l0,0Z" style="fill:#414042;fill-rule:nonzero;"/><path d="M197.203,90.574c-0.5,0.2 -0.9,0.4 -1.2,0.5c-0.3,0.1 -0.6,0.1 -0.9,0.1c-0.5,0 -1.1,-0.1 -1.2,-0.4c-0.1,-0.2 -0.2,-0.8 -0.2,-2.1l0,-6.7l3.3,0l0,-1.5l-3.3,0l0,-3.9l-0.8,0l-1,1.3l0,2.6l-3.1,0l0,1.5l3.1,0l0,8.1c0,0.9 0.3,1.6 0.9,2.1c0.6,0.5 1.3,0.7 2.1,0.7c0.3,0 0.8,-0.1 1.4,-0.2c0.5,-0.2 0.9,-0.3 1.1,-0.4l0.1,-0.1l0,-1.7l-0.3,0.1l0,0Z" style="fill:#414042;fill-rule:nonzero;"/></g><path id="red" d="M219.203,93.374c-0.4,-0.4 -0.8,-0.8 -1.3,-1.4c-1.2,1.1 -2.6,1.6 -4.1,1.6c-2.8,0 -4.3,-1.8 -4.3,-4c0,-1.9 1.2,-3.3 2.8,-4.1l0,-0.1c-0.7,-0.9 -1.2,-2 -1.2,-3c0,-1.7 1.2,-3.5 3.6,-3.5c1.8,0 3.1,1.2 3.1,3c0,1.5 -0.9,2.7 -3.1,3.8l0,0.1c1.2,1.4 2.5,2.9 3.4,3.9c0.7,-1 1.1,-2.4 1.4,-4.1l1.7,0c-0.4,2.2 -1,4 -2,5.2c0.8,0.8 1.5,1.6 2.3,2.5l-2.3,0l0,0.1Zm-2.3,-2.5c-0.8,-0.9 -2.4,-2.6 -4,-4.5c-0.8,0.5 -1.8,1.4 -1.8,2.9c0,1.6 1.2,2.9 2.9,2.9c1.2,0 2.3,-0.5 2.9,-1.3l0,0Zm-4.3,-8.6c0,1 0.5,1.8 1.1,2.5c1.4,-0.8 2.4,-1.6 2.4,-2.8c0,-0.9 -0.5,-1.8 -1.6,-1.8c-1.2,0 -1.9,1 -1.9,2.1Z" style="fill:#d2232a;fill-rule:nonzero;"/><g id="dark-gray1"><path d="M239.103,90.974c-0.4,0.1 -0.9,0.1 -1.4,0.1c-1.3,0 -2.3,-0.4 -3.1,-1.2c-0.8,-0.8 -1.2,-1.9 -1.2,-3.3c0,-1.4 0.4,-2.5 1.2,-3.4c0.8,-0.9 1.7,-1.3 3,-1.3c0.5,0 0.9,0 1.3,0.1c0.4,0.1 1,0.3 1.6,0.6l0.3,0.1l0,-1.9l-0.2,-0.1c-0.7,-0.2 -1.2,-0.4 -1.7,-0.4c-0.5,-0.1 -1,-0.1 -1.5,-0.1c-0.9,0 -1.7,0.2 -2.4,0.5c-0.7,0.3 -1.4,0.8 -1.9,1.3c-0.5,0.6 -0.9,1.3 -1.2,2.1c-0.3,0.8 -0.4,1.7 -0.4,2.6c0,1.8 0.6,3.3 1.6,4.5c1.1,1.1 2.5,1.7 4.3,1.7c0.5,0 1.1,0 1.6,-0.1c0.5,-0.1 1.1,-0.3 1.8,-0.5l0.2,-0.1l0,-1.9l-0.3,0.1c-0.6,0.3 -1.1,0.5 -1.6,0.6l0,0Z" style="fill:#414042;fill-rule:nonzero;"/><path d="M257.803,81.974c-0.6,-0.6 -1.2,-1 -2,-1.3c-1.5,-0.6 -3.4,-0.6 -4.9,0c-0.8,0.3 -1.4,0.8 -2,1.3c-0.6,0.6 -1,1.3 -1.3,2c-0.3,0.8 -0.5,1.6 -0.5,2.5c0,0.9 0.2,1.7 0.5,2.5c0.3,0.8 0.7,1.5 1.3,2c0.6,0.6 1.2,1 2,1.3c0.8,0.3 1.6,0.5 2.4,0.5c0.9,0 1.7,-0.2 2.5,-0.5c0.7,-0.3 1.4,-0.8 2,-1.3c0.6,-0.6 1,-1.2 1.3,-2c0.3,-0.8 0.5,-1.6 0.5,-2.5c0,-0.9 -0.2,-1.7 -0.5,-2.5c-0.3,-0.7 -0.7,-1.4 -1.3,-2Zm-0.1,4.5c0,0.7 -0.1,1.3 -0.3,1.8c-0.2,0.6 -0.5,1 -0.9,1.4c-0.4,0.4 -0.9,0.7 -1.4,1c-0.5,0.2 -1.1,0.3 -1.7,0.3c-1.3,0 -2.3,-0.4 -3.1,-1.3c-0.4,-0.4 -0.7,-0.9 -0.9,-1.5c-0.2,-0.6 -0.3,-1.2 -0.3,-1.8c0,-0.7 0.1,-1.3 0.3,-1.8c0.2,-0.6 0.5,-1.1 0.9,-1.5c0.8,-0.9 1.9,-1.3 3.1,-1.3c0.6,0 1.2,0.1 1.7,0.3c0.5,0.2 1,0.6 1.4,1c0.4,0.4 0.7,0.9 0.9,1.5c0.2,0.7 0.3,1.3 0.3,1.9l0,0Z" style="fill:#414042;fill-rule:nonzero;"/><path d="M271.903,80.174c-0.9,0 -1.7,0.2 -2.3,0.6c-0.5,0.3 -0.9,0.7 -1.4,1.3l0,-1.6l-1.7,0l0,12.2l1.7,0l0,-8.4c0.5,-0.8 1,-1.4 1.6,-1.8c0.5,-0.4 1.2,-0.6 2,-0.6c1,0 1.7,0.3 2.2,0.9c0.5,0.6 0.8,1.6 0.8,2.8l0,6.9l1.7,0l0,-7.4c0,-1.6 -0.4,-2.8 -1.3,-3.7c-0.8,-0.8 -1.9,-1.2 -3.3,-1.2Z" style="fill:#414042;fill-rule:nonzero;"/><path d="M289.403,80.174c-0.9,0 -1.7,0.2 -2.3,0.6c-0.5,0.3 -0.9,0.7 -1.4,1.3l0,-1.6l-1.7,0l0,12.2l1.7,0l0,-8.4c0.5,-0.8 1,-1.4 1.6,-1.8c0.5,-0.4 1.2,-0.6 2,-0.6c1,0 1.7,0.3 2.2,0.9c0.5,0.6 0.8,1.6 0.8,2.8l0,6.9l1.7,0l0,-7.4c0,-1.6 -0.4,-2.8 -1.3,-3.7c-0.8,-0.8 -1.9,-1.2 -3.3,-1.2Z" style="fill:#414042;fill-rule:nonzero;"/><path d="M310.203,81.574c-0.5,-0.5 -1.1,-0.9 -1.8,-1.1c-1.4,-0.5 -2.9,-0.5 -4.2,0.1c-0.7,0.3 -1.3,0.7 -1.8,1.3c-0.5,0.5 -0.9,1.2 -1.2,2c-0.3,0.8 -0.4,1.6 -0.4,2.5c0,0.9 0.2,1.8 0.4,2.6c0.3,0.8 0.7,1.5 1.3,2.1c0.5,0.6 1.2,1 1.9,1.4c0.7,0.3 1.6,0.5 2.4,0.5c1.7,0 3.3,-0.5 4.7,-1.6l0.1,-0.1l0,-2.1l-0.4,0.3c-0.7,0.6 -1.4,1 -2.1,1.3c-1.2,0.5 -2.5,0.6 -3.8,0.1c-0.5,-0.2 -1,-0.5 -1.4,-0.9c-0.4,-0.4 -0.7,-0.9 -1,-1.4c-0.2,-0.5 -0.3,-1.1 -0.3,-1.7l0,-0.3l0,-0.1l9.2,0l0,-0.3c0,-1 -0.2,-1.8 -0.5,-2.6c-0.1,-0.8 -0.6,-1.5 -1.1,-2l0,0Zm-7.3,3.2c0.2,-0.9 0.6,-1.5 1.2,-2.1c0.7,-0.6 1.4,-0.8 2.3,-0.8c1.8,0 2.9,1 3.4,2.9l-6.9,0l0,0Z" style="fill:#414042;fill-rule:nonzero;"/><path d="M325.603,90.974c-0.4,0.1 -0.9,0.1 -1.4,0.1c-1.3,0 -2.3,-0.4 -3.1,-1.2c-0.8,-0.8 -1.2,-1.9 -1.2,-3.3c0,-1.4 0.4,-2.5 1.2,-3.4c0.8,-0.9 1.7,-1.3 3,-1.3c0.5,0 0.9,0 1.3,0.1c0.4,0.1 1,0.3 1.6,0.6l0.3,0.1l0,-1.9l-0.2,-0.1c-0.7,-0.2 -1.2,-0.4 -1.7,-0.4c-0.5,-0.1 -1,-0.1 -1.5,-0.1c-0.9,0 -1.7,0.2 -2.4,0.5c-0.7,0.3 -1.4,0.8 -1.9,1.3c-0.5,0.6 -0.9,1.3 -1.2,2.1c-0.3,0.8 -0.4,1.7 -0.4,2.6c0,1.8 0.6,3.3 1.6,4.5c1.1,1.1 2.5,1.7 4.3,1.7c0.5,0 1.1,0 1.6,-0.1c0.5,-0.1 1.1,-0.3 1.8,-0.5l0.2,-0.1l0,-1.9l-0.3,0.1c-0.6,0.3 -1.1,0.5 -1.6,0.6l0,0Z" style="fill:#414042;fill-rule:nonzero;"/><path d="M340.503,90.574c-0.5,0.2 -0.9,0.4 -1.2,0.5c-0.3,0.1 -0.5,0.1 -0.9,0.1c-0.5,0 -1.1,-0.1 -1.2,-0.4c-0.1,-0.2 -0.2,-0.8 -0.2,-2.1l0,-6.7l3.3,0l0,-1.5l-3.3,0l0,-3.9l-0.8,0l-1,1.3l0,2.6l-3.1,0l0,1.5l3.1,0l0,8.1c0,0.9 0.3,1.6 0.9,2.1c0.6,0.5 1.3,0.7 2.1,0.7c0.3,0 0.8,-0.1 1.4,-0.2c0.5,-0.2 0.9,-0.3 1.1,-0.4l0.1,-0.1l0,-1.7l-0.3,0.1l0,0Z" style="fill:#414042;fill-rule:nonzero;"/></g><g id="red1"><path d="M52.403,101.074c26.9,0 48.8,-21.8 48.8,-48.8c0,-27 -21.9,-48.7 -48.8,-48.7c-26.9,0 -48.8,21.8 -48.8,48.8c0,27 21.9,48.7 48.8,48.7" style="fill:#d2232a;fill-rule:nonzero;"/><path d="M52.731,1.575l0.328,0.003l0.327,0.005l0.326,0.008l0.327,0.009l0.325,0.011l0.325,0.014l0.325,0.015l0.324,0.018l0.324,0.019l0.323,0.022l0.322,0.023l0.322,0.026l0.322,0.027l0.321,0.03l0.32,0.031l0.32,0.034l0.319,0.035l0.318,0.038l0.318,0.039l0.318,0.042l0.316,0.043l0.317,0.045l0.315,0.048l0.315,0.049l0.314,0.051l0.314,0.053l0.313,0.055l0.312,0.057l0.312,0.059l0.311,0.06l0.31,0.063l0.31,0.064l0.309,0.067l0.308,0.068l0.308,0.07l0.306,0.072l0.307,0.074l0.305,0.075l0.305,0.078l0.304,0.079l0.303,0.081l0.302,0.083l0.302,0.085l0.301,0.086l0.3,0.089l0.3,0.09l0.298,0.092l0.298,0.094l0.297,0.095l0.297,0.097l0.59,0.2l0.294,0.103l0.293,0.104l0.292,0.106l0.291,0.108l0.291,0.11l0.29,0.111l0.288,0.113l0.288,0.114l0.288,0.117l0.286,0.118l0.285,0.12l0.285,0.121l0.283,0.123l0.283,0.125l0.282,0.126l0.281,0.129l0.279,0.129l0.279,0.132l0.279,0.133l0.277,0.134l0.276,0.137l0.275,0.138l0.274,0.139l0.274,0.141l0.272,0.143l0.272,0.144l0.27,0.146l0.27,0.148l0.268,0.149l0.267,0.151l0.267,0.152l0.265,0.154l0.265,0.155l0.263,0.157l0.262,0.158l0.262,0.16l0.26,0.162l0.259,0.162l0.258,0.165l0.258,0.166l0.256,0.167l0.255,0.169l0.254,0.171l0.252,0.172l0.252,0.173l0.251,0.175l0.498,0.354l0.247,0.18l0.246,0.18l0.245,0.183l0.244,0.183l0.243,0.185l0.241,0.187l0.241,0.188l0.239,0.189l0.238,0.19l0.237,0.192l0.236,0.194l0.235,0.195l0.233,0.196l0.232,0.198l0.231,0.198l0.23,0.201l0.229,0.201l0.227,0.203l0.226,0.205l0.225,0.205l0.224,0.207l0.222,0.209l0.221,0.209l0.22,0.211l0.219,0.212l0.217,0.214l0.216,0.215l0.215,0.216l0.214,0.217l0.212,0.219l0.211,0.22l0.209,0.221l0.209,0.222l0.207,0.224l0.205,0.225l0.205,0.226l0.203,0.227l0.201,0.229l0.201,0.23l0.198,0.231l0.198,0.232l0.196,0.233l0.195,0.235l0.193,0.236l0.193,0.237l0.19,0.238l0.189,0.239l0.188,0.241l0.187,0.241l0.185,0.243l0.183,0.244l0.183,0.245l0.18,0.246l0.18,0.247l0.354,0.498l0.175,0.251l0.173,0.252l0.172,0.252l0.171,0.254l0.169,0.255l0.167,0.256l0.166,0.258l0.165,0.258l0.162,0.259l0.162,0.26l0.16,0.262l0.158,0.262l0.157,0.263l0.155,0.265l0.154,0.265l0.152,0.267l0.151,0.267l0.149,0.268l0.148,0.27l0.146,0.27l0.144,0.272l0.143,0.272l0.141,0.273l0.139,0.275l0.138,0.275l0.137,0.276l0.134,0.277l0.133,0.279l0.132,0.279l0.129,0.279l0.129,0.281l0.126,0.282l0.125,0.283l0.123,0.283l0.121,0.285l0.12,0.285l0.118,0.286l0.117,0.288l0.114,0.288l0.113,0.288l0.111,0.29l0.11,0.291l0.108,0.291l0.106,0.292l0.104,0.293l0.103,0.294l0.2,0.59l0.097,0.297l0.095,0.297l0.094,0.298l0.092,0.298l0.09,0.3l0.089,0.3l0.086,0.301l0.085,0.302l0.083,0.302l0.081,0.303l0.079,0.304l0.078,0.305l0.075,0.305l0.074,0.307l0.072,0.306l0.07,0.308l0.068,0.308l0.067,0.309l0.064,0.31l0.063,0.31l0.06,0.311l0.059,0.312l0.057,0.312l0.055,0.313l0.053,0.314l0.051,0.314l0.049,0.315l0.048,0.315l0.045,0.317l0.043,0.316l0.042,0.318l0.039,0.318l0.038,0.318l0.035,0.319l0.034,0.32l0.031,0.32l0.03,0.321l0.027,0.322l0.026,0.322l0.023,0.322l0.022,0.323l0.019,0.324l0.018,0.324l0.015,0.325l0.014,0.325l0.011,0.325l0.009,0.327l0.008,0.326l0.005,0.327l0.003,0.328l0.001,0.328l-0.001,0.328l-0.003,0.328l-0.005,0.327l-0.008,0.326l-0.009,0.327l-0.011,0.325l-0.014,0.325l-0.015,0.325l-0.018,0.324l-0.019,0.324l-0.022,0.323l-0.023,0.322l-0.026,0.322l-0.027,0.322l-0.03,0.321l-0.031,0.32l-0.034,0.32l-0.035,0.319l-0.038,0.318l-0.039,0.318l-0.042,0.318l-0.043,0.316l-0.045,0.317l-0.048,0.315l-0.049,0.315l-0.051,0.314l-0.053,0.314l-0.055,0.313l-0.057,0.312l-0.059,0.312l-0.06,0.311l-0.063,0.31l-0.064,0.31l-0.067,0.309l-0.068,0.308l-0.07,0.308l-0.072,0.306l-0.074,0.307l-0.075,0.305l-0.078,0.305l-0.079,0.304l-0.081,0.303l-0.083,0.302l-0.085,0.302l-0.086,0.301l-0.089,0.3l-0.09,0.3l-0.092,0.298l-0.094,0.298l-0.095,0.297l-0.097,0.297l-0.1,0.295l-0.1,0.295l-0.103,0.294l-0.104,0.293l-0.106,0.292l-0.108,0.291l-0.11,0.291l-0.111,0.29l-0.113,0.288l-0.114,0.288l-0.117,0.288l-0.118,0.286l-0.12,0.285l-0.121,0.285l-0.123,0.283l-0.125,0.283l-0.126,0.282l-0.129,0.281l-0.129,0.279l-0.132,0.279l-0.133,0.279l-0.134,0.277l-0.137,0.276l-0.138,0.275l-0.139,0.275l-0.141,0.273l-0.143,0.272l-0.144,0.272l-0.146,0.27l-0.148,0.27l-0.149,0.268l-0.151,0.267l-0.152,0.267l-0.154,0.265l-0.155,0.265l-0.157,0.263l-0.158,0.262l-0.16,0.262l-0.162,0.26l-0.162,0.259l-0.165,0.258l-0.166,0.258l-0.167,0.256l-0.169,0.255l-0.171,0.254l-0.172,0.252l-0.173,0.252l-0.175,0.251l-0.177,0.249l-0.177,0.249l-0.18,0.247l-0.18,0.246l-0.183,0.245l-0.183,0.244l-0.185,0.243l-0.187,0.241l-0.188,0.241l-0.189,0.239l-0.19,0.238l-0.192,0.237l-0.194,0.236l-0.195,0.235l-0.196,0.233l-0.198,0.232l-0.198,0.231l-0.201,0.23l-0.201,0.229l-0.203,0.227l-0.205,0.226l-0.205,0.225l-0.207,0.224l-0.209,0.222l-0.209,0.221l-0.211,0.22l-0.212,0.219l-0.214,0.217l-0.215,0.216l-0.216,0.215l-0.217,0.214l-0.219,0.212l-0.22,0.211l-0.221,0.209l-0.222,0.209l-0.224,0.207l-0.225,0.205l-0.226,0.205l-0.227,0.203l-0.229,0.201l-0.23,0.201l-0.231,0.198l-0.232,0.198l-0.233,0.196l-0.235,0.195l-0.236,0.194l-0.237,0.192l-0.238,0.19l-0.239,0.189l-0.241,0.188l-0.241,0.187l-0.243,0.185l-0.244,0.183l-0.245,0.183l-0.246,0.18l-0.247,0.18l-0.249,0.177l-0.249,0.177l-0.251,0.175l-0.252,0.173l-0.253,0.172l-0.253,0.171l-0.255,0.169l-0.256,0.167l-0.258,0.166l-0.258,0.165l-0.259,0.162l-0.26,0.162l-0.262,0.16l-0.262,0.158l-0.263,0.157l-0.265,0.155l-0.265,0.154l-0.267,0.152l-0.267,0.151l-0.268,0.149l-0.27,0.148l-0.27,0.146l-0.272,0.144l-0.272,0.143l-0.273,0.141l-0.275,0.139l-0.275,0.138l-0.276,0.137l-0.277,0.134l-0.279,0.133l-0.279,0.132l-0.28,0.129l-0.28,0.129l-0.282,0.126l-0.283,0.125l-0.283,0.123l-0.285,0.121l-0.285,0.12l-0.286,0.118l-0.288,0.117l-0.288,0.114l-0.288,0.113l-0.29,0.111l-0.291,0.11l-0.291,0.108l-0.292,0.106l-0.293,0.104l-0.294,0.103l-0.295,0.1l-0.295,0.1l-0.297,0.097l-0.297,0.095l-0.298,0.094l-0.298,0.092l-0.3,0.09l-0.3,0.089l-0.301,0.086l-0.302,0.085l-0.302,0.083l-0.303,0.081l-0.304,0.079l-0.305,0.078l-0.305,0.075l-0.307,0.074l-0.306,0.072l-0.308,0.07l-0.308,0.068l-0.309,0.067l-0.31,0.064l-0.31,0.063l-0.311,0.06l-0.312,0.059l-0.312,0.057l-0.313,0.055l-0.314,0.053l-0.314,0.051l-0.315,0.049l-0.315,0.048l-0.317,0.045l-0.316,0.043l-0.318,0.042l-0.318,0.039l-0.318,0.038l-0.319,0.035l-0.32,0.034l-0.32,0.031l-0.321,0.03l-0.322,0.027l-0.322,0.026l-0.322,0.023l-0.323,0.022l-0.324,0.019l-0.324,0.018l-0.325,0.015l-0.325,0.014l-0.325,0.011l-0.327,0.009l-0.326,0.008l-0.327,0.005l-0.328,0.003l-0.328,0.001l-0.328,-0.001l-0.328,-0.003l-0.327,-0.005l-0.326,-0.008l-0.327,-0.009l-0.325,-0.011l-0.325,-0.014l-0.325,-0.015l-0.324,-0.018l-0.324,-0.019l-0.323,-0.022l-0.322,-0.023l-0.322,-0.026l-0.322,-0.027l-0.321,-0.03l-0.32,-0.031l-0.32,-0.034l-0.319,-0.035l-0.318,-0.038l-0.318,-0.039l-0.318,-0.042l-0.316,-0.043l-0.316,-0.045l-0.316,-0.048l-0.315,-0.049l-0.314,-0.051l-0.314,-0.053l-0.313,-0.055l-0.312,-0.057l-0.312,-0.059l-0.311,-0.06l-0.31,-0.063l-0.31,-0.064l-0.309,-0.067l-0.308,-0.068l-0.308,-0.07l-0.306,-0.072l-0.307,-0.074l-0.305,-0.075l-0.305,-0.078l-0.304,-0.079l-0.303,-0.081l-0.302,-0.083l-0.302,-0.085l-0.301,-0.086l-0.3,-0.089l-0.3,-0.09l-0.298,-0.092l-0.298,-0.094l-0.297,-0.095l-0.297,-0.097l-0.295,-0.1l-0.295,-0.1l-0.294,-0.103l-0.293,-0.104l-0.292,-0.106l-0.291,-0.108l-0.291,-0.11l-0.29,-0.111l-0.288,-0.113l-0.288,-0.114l-0.288,-0.117l-0.286,-0.118l-0.285,-0.12l-0.285,-0.121l-0.283,-0.123l-0.283,-0.125l-0.282,-0.126l-0.28,-0.129l-0.28,-0.129l-0.279,-0.132l-0.279,-0.133l-0.277,-0.134l-0.276,-0.137l-0.275,-0.138l-0.275,-0.139l-0.273,-0.141l-0.272,-0.143l-0.272,-0.144l-0.27,-0.146l-0.27,-0.148l-0.268,-0.149l-0.267,-0.151l-0.267,-0.152l-0.265,-0.154l-0.265,-0.155l-0.263,-0.157l-0.262,-0.158l-0.262,-0.16l-0.26,-0.162l-0.259,-0.162l-0.258,-0.165l-0.258,-0.166l-0.256,-0.167l-0.255,-0.169l-0.254,-0.171l-0.252,-0.172l-0.252,-0.173l-0.251,-0.175l-0.249,-0.177l-0.249,-0.177l-0.247,-0.18l-0.246,-0.18l-0.245,-0.183l-0.244,-0.183l-0.243,-0.185l-0.241,-0.187l-0.241,-0.188l-0.239,-0.189l-0.238,-0.19l-0.237,-0.192l-0.236,-0.194l-0.235,-0.195l-0.233,-0.196l-0.232,-0.198l-0.231,-0.198l-0.23,-0.201l-0.229,-0.201l-0.227,-0.203l-0.226,-0.205l-0.225,-0.205l-0.224,-0.207l-0.222,-0.209l-0.221,-0.209l-0.22,-0.211l-0.219,-0.212l-0.217,-0.214l-0.216,-0.215l-0.215,-0.216l-0.214,-0.217l-0.212,-0.219l-0.211,-0.22l-0.209,-0.221l-0.209,-0.222l-0.207,-0.224l-0.205,-0.225l-0.205,-0.226l-0.203,-0.227l-0.201,-0.229l-0.201,-0.23l-0.198,-0.231l-0.198,-0.232l-0.196,-0.233l-0.195,-0.235l-0.194,-0.236l-0.192,-0.237l-0.19,-0.238l-0.189,-0.239l-0.188,-0.241l-0.187,-0.241l-0.185,-0.243l-0.183,-0.244l-0.183,-0.245l-0.18,-0.246l-0.18,-0.247l-0.177,-0.249l-0.177,-0.249l-0.175,-0.251l-0.173,-0.252l-0.172,-0.252l-0.171,-0.254l-0.169,-0.255l-0.167,-0.256l-0.166,-0.258l-0.165,-0.258l-0.162,-0.259l-0.162,-0.26l-0.16,-0.262l-0.158,-0.262l-0.157,-0.263l-0.155,-0.265l-0.154,-0.265l-0.152,-0.267l-0.151,-0.267l-0.149,-0.268l-0.148,-0.27l-0.146,-0.27l-0.144,-0.272l-0.143,-0.272l-0.141,-0.273l-0.139,-0.275l-0.138,-0.275l-0.137,-0.276l-0.134,-0.277l-0.133,-0.279l-0.132,-0.279l-0.129,-0.28l-0.129,-0.28l-0.126,-0.282l-0.125,-0.283l-0.123,-0.283l-0.121,-0.285l-0.12,-0.285l-0.118,-0.286l-0.117,-0.288l-0.114,-0.288l-0.113,-0.288l-0.111,-0.29l-0.11,-0.291l-0.108,-0.291l-0.106,-0.292l-0.104,-0.293l-0.103,-0.294l-0.1,-0.295l-0.1,-0.295l-0.097,-0.297l-0.095,-0.297l-0.094,-0.298l-0.092,-0.298l-0.09,-0.3l-0.089,-0.3l-0.086,-0.301l-0.085,-0.302l-0.083,-0.302l-0.081,-0.303l-0.079,-0.304l-0.078,-0.305l-0.075,-0.305l-0.074,-0.307l-0.072,-0.306l-0.07,-0.308l-0.068,-0.308l-0.067,-0.309l-0.064,-0.31l-0.063,-0.31l-0.06,-0.311l-0.059,-0.312l-0.057,-0.312l-0.055,-0.313l-0.053,-0.314l-0.051,-0.314l-0.049,-0.315l-0.048,-0.315l-0.045,-0.317l-0.043,-0.316l-0.042,-0.318l-0.039,-0.318l-0.038,-0.318l-0.035,-0.319l-0.034,-0.32l-0.031,-0.32l-0.03,-0.321l-0.027,-0.322l-0.026,-0.322l-0.023,-0.322l-0.022,-0.323l-0.019,-0.324l-0.018,-0.324l-0.015,-0.325l-0.014,-0.325l-0.011,-0.325l-0.009,-0.327l-0.008,-0.326l-0.005,-0.327l-0.003,-0.328l-0.001,-0.328l0.001,-0.328l0.003,-0.328l0.005,-0.327l0.008,-0.326l0.009,-0.327l0.011,-0.325l0.014,-0.325l0.015,-0.325l0.018,-0.324l0.019,-0.324l0.022,-0.323l0.023,-0.322l0.026,-0.322l0.027,-0.322l0.03,-0.321l0.031,-0.32l0.034,-0.32l0.035,-0.319l0.038,-0.318l0.039,-0.318l0.042,-0.318l0.043,-0.316l0.045,-0.317l0.048,-0.315l0.049,-0.315l0.051,-0.314l0.053,-0.314l0.055,-0.313l0.057,-0.312l0.059,-0.312l0.06,-0.311l0.063,-0.31l0.064,-0.31l0.067,-0.309l0.068,-0.308l0.07,-0.308l0.072,-0.306l0.074,-0.307l0.075,-0.305l0.078,-0.305l0.079,-0.304l0.081,-0.303l0.083,-0.302l0.085,-0.302l0.086,-0.301l0.089,-0.3l0.09,-0.3l0.092,-0.298l0.094,-0.298l0.095,-0.297l0.097,-0.297l0.1,-0.295l0.1,-0.295l0.103,-0.294l0.104,-0.293l0.106,-0.292l0.108,-0.291l0.11,-0.291l0.111,-0.29l0.113,-0.288l0.114,-0.288l0.117,-0.288l0.118,-0.286l0.12,-0.285l0.121,-0.285l0.123,-0.283l0.125,-0.283l0.126,-0.282l0.129,-0.28l0.129,-0.28l0.132,-0.279l0.133,-0.279l0.134,-0.277l0.137,-0.276l0.138,-0.275l0.139,-0.275l0.141,-0.273l0.143,-0.272l0.144,-0.272l0.146,-0.27l0.148,-0.27l0.149,-0.268l0.151,-0.267l0.152,-0.267l0.154,-0.265l0.155,-0.265l0.157,-0.263l0.158,-0.262l0.16,-0.262l0.162,-0.26l0.162,-0.259l0.165,-0.258l0.166,-0.258l0.167,-0.256l0.169,-0.255l0.171,-0.253l0.172,-0.253l0.173,-0.252l0.175,-0.251l0.177,-0.249l0.177,-0.249l0.18,-0.247l0.18,-0.246l0.183,-0.245l0.183,-0.244l0.185,-0.243l0.187,-0.241l0.188,-0.241l0.189,-0.239l0.19,-0.238l0.192,-0.237l0.194,-0.236l0.195,-0.235l0.196,-0.233l0.198,-0.232l0.198,-0.231l0.201,-0.23l0.201,-0.229l0.203,-0.227l0.205,-0.226l0.205,-0.225l0.207,-0.224l0.209,-0.222l0.209,-0.221l0.211,-0.22l0.212,-0.219l0.214,-0.217l0.215,-0.216l0.216,-0.215l0.217,-0.214l0.219,-0.212l0.22,-0.211l0.221,-0.209l0.222,-0.209l0.224,-0.207l0.225,-0.205l0.226,-0.205l0.227,-0.203l0.229,-0.201l0.23,-0.201l0.231,-0.198l0.232,-0.198l0.233,-0.196l0.235,-0.195l0.236,-0.194l0.237,-0.192l0.238,-0.19l0.239,-0.189l0.241,-0.188l0.241,-0.187l0.243,-0.185l0.244,-0.183l0.245,-0.183l0.246,-0.18l0.247,-0.18l0.249,-0.177l0.249,-0.177l0.251,-0.175l0.252,-0.173l0.252,-0.172l0.254,-0.171l0.255,-0.169l0.256,-0.167l0.258,-0.166l0.258,-0.165l0.259,-0.162l0.26,-0.162l0.262,-0.16l0.262,-0.158l0.263,-0.157l0.265,-0.155l0.265,-0.154l0.267,-0.152l0.267,-0.151l0.268,-0.149l0.27,-0.148l0.27,-0.146l0.272,-0.144l0.272,-0.143l0.273,-0.141l0.275,-0.139l0.275,-0.138l0.276,-0.137l0.277,-0.134l0.279,-0.133l0.279,-0.132l0.279,-0.129l0.281,-0.129l0.282,-0.126l0.283,-0.125l0.283,-0.123l0.285,-0.121l0.285,-0.12l0.286,-0.118l0.288,-0.117l0.288,-0.114l0.288,-0.113l0.29,-0.111l0.291,-0.11l0.291,-0.108l0.292,-0.106l0.293,-0.104l0.294,-0.103l0.295,-0.1l0.295,-0.1l0.297,-0.097l0.297,-0.095l0.298,-0.094l0.298,-0.092l0.3,-0.09l0.3,-0.089l0.301,-0.086l0.302,-0.085l0.302,-0.083l0.303,-0.081l0.304,-0.079l0.305,-0.078l0.305,-0.075l0.307,-0.074l0.306,-0.072l0.308,-0.07l0.308,-0.068l0.309,-0.067l0.31,-0.064l0.31,-0.063l0.311,-0.06l0.312,-0.059l0.312,-0.057l0.313,-0.055l0.314,-0.053l0.314,-0.051l0.315,-0.049l0.315,-0.048l0.317,-0.045l0.316,-0.043l0.318,-0.042l0.318,-0.039l0.318,-0.038l0.319,-0.035l0.32,-0.034l0.32,-0.031l0.321,-0.03l0.322,-0.027l0.322,-0.026l0.322,-0.023l0.323,-0.022l0.324,-0.019l0.324,-0.018l0.325,-0.015l0.325,-0.014l0.325,-0.011l0.327,-0.009l0.326,-0.008l0.327,-0.005l0.328,-0.003l0.328,-0.001l0.328,0.001Zm-0.631,4l-0.302,0.003l-0.302,0.005l-0.301,0.006l-0.301,0.009l-0.3,0.01l-0.3,0.013l-0.299,0.014l-0.299,0.016l-0.298,0.018l-0.298,0.02l-0.297,0.022l-0.297,0.023l-0.296,0.026l-0.296,0.027l-0.295,0.029l-0.295,0.031l-0.294,0.033l-0.293,0.034l-0.293,0.036l-0.293,0.039l-0.291,0.039l-0.292,0.042l-0.29,0.044l-0.29,0.045l-0.29,0.047l-0.288,0.049l-0.289,0.051l-0.287,0.052l-0.287,0.054l-0.287,0.056l-0.285,0.058l-0.285,0.059l-0.285,0.061l-0.284,0.063l-0.283,0.064l-0.282,0.066l-0.282,0.068l-0.282,0.07l-0.28,0.071l-0.28,0.073l-0.279,0.075l-0.279,0.076l-0.277,0.078l-0.277,0.08l-0.277,0.081l-0.275,0.083l-0.275,0.085l-0.275,0.086l-0.273,0.088l-0.273,0.09l-0.272,0.091l-0.271,0.093l-0.271,0.094l-0.27,0.096l-0.269,0.098l-0.268,0.099l-0.267,0.101l-0.267,0.103l-0.266,0.104l-0.265,0.105l-0.265,0.107l-0.263,0.109l-0.263,0.11l-0.262,0.112l-0.261,0.113l-0.26,0.115l-0.26,0.117l-0.258,0.118l-0.258,0.119l-0.257,0.121l-0.256,0.123l-0.256,0.124l-0.254,0.125l-0.254,0.127l-0.252,0.129l-0.252,0.13l-0.251,0.131l-0.25,0.133l-0.249,0.135l-0.248,0.136l-0.247,0.137l-0.247,0.139l-0.245,0.14l-0.245,0.142l-0.243,0.143l-0.243,0.144l-0.242,0.146l-0.24,0.148l-0.24,0.148l-0.239,0.15l-0.238,0.152l-0.237,0.153l-0.236,0.154l-0.235,0.156l-0.234,0.157l-0.233,0.159l-0.232,0.159l-0.231,0.162l-0.23,0.162l-0.228,0.164l-0.228,0.165l-0.227,0.167l-0.226,0.168l-0.225,0.169l-0.224,0.17l-0.222,0.172l-0.222,0.173l-0.22,0.175l-0.22,0.175l-0.218,0.178l-0.218,0.178l-0.216,0.179l-0.215,0.181l-0.214,0.182l-0.213,0.184l-0.212,0.184l-0.211,0.186l-0.209,0.187l-0.209,0.189l-0.207,0.189l-0.206,0.191l-0.205,0.192l-0.204,0.193l-0.203,0.195l-0.201,0.195l-0.201,0.197l-0.199,0.198l-0.198,0.199l-0.197,0.201l-0.195,0.201l-0.195,0.203l-0.193,0.204l-0.192,0.205l-0.191,0.206l-0.189,0.207l-0.189,0.209l-0.187,0.209l-0.186,0.211l-0.184,0.212l-0.184,0.213l-0.182,0.214l-0.181,0.215l-0.179,0.216l-0.178,0.218l-0.178,0.218l-0.175,0.22l-0.175,0.22l-0.173,0.222l-0.172,0.222l-0.17,0.224l-0.169,0.225l-0.168,0.226l-0.167,0.227l-0.165,0.228l-0.164,0.228l-0.162,0.23l-0.162,0.231l-0.159,0.232l-0.159,0.233l-0.157,0.234l-0.156,0.235l-0.154,0.236l-0.153,0.237l-0.152,0.238l-0.15,0.239l-0.148,0.24l-0.148,0.24l-0.146,0.242l-0.144,0.243l-0.143,0.243l-0.142,0.245l-0.14,0.245l-0.139,0.247l-0.137,0.247l-0.136,0.248l-0.135,0.249l-0.133,0.25l-0.131,0.251l-0.13,0.252l-0.129,0.252l-0.127,0.254l-0.125,0.254l-0.124,0.256l-0.123,0.256l-0.121,0.257l-0.119,0.258l-0.118,0.258l-0.117,0.26l-0.115,0.26l-0.113,0.261l-0.112,0.262l-0.11,0.263l-0.109,0.263l-0.107,0.265l-0.105,0.265l-0.104,0.266l-0.103,0.267l-0.101,0.267l-0.099,0.268l-0.098,0.269l-0.096,0.27l-0.094,0.271l-0.093,0.271l-0.091,0.272l-0.09,0.273l-0.088,0.273l-0.086,0.275l-0.085,0.275l-0.083,0.275l-0.081,0.277l-0.08,0.277l-0.078,0.277l-0.076,0.279l-0.075,0.279l-0.073,0.28l-0.071,0.28l-0.07,0.282l-0.068,0.282l-0.066,0.282l-0.064,0.283l-0.063,0.284l-0.061,0.285l-0.059,0.285l-0.058,0.285l-0.056,0.287l-0.054,0.287l-0.052,0.287l-0.051,0.289l-0.049,0.288l-0.047,0.29l-0.045,0.29l-0.044,0.29l-0.042,0.292l-0.039,0.291l-0.039,0.293l-0.036,0.293l-0.034,0.293l-0.033,0.294l-0.031,0.295l-0.029,0.295l-0.027,0.296l-0.026,0.296l-0.023,0.297l-0.022,0.297l-0.02,0.298l-0.018,0.298l-0.016,0.299l-0.014,0.299l-0.013,0.3l-0.01,0.3l-0.009,0.301l-0.006,0.301l-0.005,0.302l-0.003,0.302l-0.001,0.303l0.001,0.303l0.003,0.302l0.005,0.302l0.006,0.301l0.009,0.301l0.01,0.3l0.013,0.3l0.014,0.299l0.016,0.299l0.018,0.298l0.02,0.298l0.022,0.297l0.023,0.297l0.026,0.296l0.027,0.296l0.029,0.295l0.031,0.295l0.033,0.294l0.034,0.293l0.036,0.293l0.039,0.293l0.039,0.291l0.042,0.292l0.044,0.29l0.045,0.29l0.047,0.29l0.049,0.288l0.051,0.289l0.052,0.287l0.054,0.287l0.056,0.287l0.058,0.285l0.059,0.285l0.061,0.285l0.063,0.284l0.064,0.283l0.066,0.282l0.068,0.282l0.07,0.282l0.071,0.28l0.073,0.28l0.075,0.279l0.076,0.279l0.078,0.277l0.08,0.277l0.081,0.277l0.083,0.275l0.085,0.275l0.086,0.275l0.088,0.273l0.09,0.273l0.091,0.272l0.093,0.271l0.094,0.271l0.096,0.27l0.098,0.269l0.099,0.268l0.101,0.267l0.103,0.267l0.104,0.266l0.105,0.265l0.107,0.265l0.109,0.263l0.11,0.263l0.112,0.262l0.113,0.261l0.115,0.26l0.117,0.26l0.118,0.258l0.119,0.258l0.121,0.257l0.123,0.256l0.124,0.256l0.125,0.254l0.127,0.254l0.129,0.252l0.13,0.252l0.131,0.251l0.133,0.25l0.135,0.249l0.136,0.248l0.137,0.247l0.139,0.247l0.14,0.245l0.142,0.245l0.143,0.243l0.144,0.243l0.146,0.242l0.296,0.48l0.15,0.239l0.152,0.238l0.153,0.237l0.154,0.236l0.156,0.235l0.157,0.234l0.159,0.233l0.159,0.232l0.162,0.231l0.162,0.23l0.164,0.228l0.165,0.228l0.167,0.227l0.168,0.226l0.169,0.225l0.17,0.224l0.172,0.222l0.173,0.222l0.35,0.44l0.356,0.436l0.179,0.216l0.181,0.215l0.182,0.214l0.184,0.213l0.184,0.212l0.186,0.211l0.187,0.209l0.189,0.209l0.189,0.207l0.191,0.206l0.192,0.205l0.193,0.204l0.195,0.203l0.195,0.201l0.197,0.201l0.198,0.199l0.199,0.198l0.201,0.197l0.201,0.195l0.203,0.195l0.204,0.193l0.205,0.192l0.206,0.191l0.207,0.189l0.209,0.189l0.209,0.187l0.211,0.186l0.212,0.184l0.213,0.184l0.214,0.182l0.215,0.181l0.216,0.179l0.218,0.178l0.218,0.177l0.22,0.176l0.22,0.175l0.222,0.173l0.222,0.172l0.224,0.17l0.225,0.169l0.226,0.168l0.227,0.167l0.228,0.165l0.228,0.164l0.23,0.162l0.231,0.162l0.232,0.159l0.233,0.159l0.234,0.157l0.235,0.156l0.236,0.154l0.237,0.153l0.238,0.152l0.239,0.15l0.48,0.296l0.242,0.146l0.243,0.144l0.243,0.143l0.245,0.142l0.245,0.14l0.247,0.139l0.247,0.137l0.248,0.136l0.249,0.135l0.25,0.133l0.251,0.131l0.252,0.13l0.252,0.129l0.254,0.127l0.254,0.125l0.256,0.124l0.256,0.123l0.257,0.121l0.258,0.119l0.258,0.118l0.26,0.117l0.26,0.115l0.261,0.113l0.262,0.112l0.263,0.11l0.263,0.109l0.265,0.107l0.265,0.105l0.266,0.104l0.267,0.103l0.267,0.101l0.268,0.099l0.269,0.098l0.27,0.096l0.271,0.094l0.271,0.093l0.272,0.091l0.273,0.09l0.273,0.088l0.275,0.086l0.275,0.085l0.275,0.083l0.277,0.081l0.277,0.08l0.277,0.078l0.279,0.076l0.279,0.075l0.28,0.073l0.28,0.071l0.282,0.07l0.282,0.068l0.282,0.066l0.283,0.064l0.284,0.063l0.285,0.061l0.285,0.059l0.285,0.058l0.287,0.056l0.287,0.054l0.287,0.052l0.289,0.051l0.288,0.049l0.29,0.047l0.29,0.045l0.29,0.044l0.292,0.042l0.291,0.039l0.293,0.039l0.293,0.036l0.293,0.034l0.294,0.033l0.295,0.031l0.295,0.029l0.296,0.027l0.296,0.026l0.297,0.023l0.297,0.022l0.298,0.02l0.298,0.018l0.299,0.016l0.299,0.014l0.3,0.013l0.3,0.01l0.301,0.009l0.301,0.006l0.302,0.005l0.302,0.003l0.303,0.001l0.303,-0.001l0.302,-0.003l0.302,-0.005l0.301,-0.006l0.301,-0.009l0.3,-0.01l0.3,-0.013l0.299,-0.014l0.299,-0.016l0.298,-0.018l0.298,-0.02l0.297,-0.022l0.297,-0.023l0.296,-0.026l0.296,-0.027l0.295,-0.029l0.295,-0.031l0.294,-0.033l0.293,-0.034l0.293,-0.036l0.293,-0.039l0.291,-0.039l0.292,-0.042l0.29,-0.044l0.29,-0.045l0.29,-0.047l0.288,-0.049l0.289,-0.051l0.287,-0.052l0.287,-0.054l0.287,-0.056l0.285,-0.058l0.285,-0.059l0.285,-0.061l0.284,-0.063l0.283,-0.064l0.282,-0.066l0.282,-0.068l0.282,-0.07l0.28,-0.071l0.28,-0.073l0.279,-0.075l0.279,-0.076l0.277,-0.078l0.277,-0.08l0.277,-0.081l0.275,-0.083l0.275,-0.085l0.275,-0.086l0.273,-0.088l0.273,-0.09l0.272,-0.091l0.271,-0.093l0.271,-0.094l0.27,-0.096l0.269,-0.098l0.268,-0.099l0.267,-0.101l0.267,-0.103l0.266,-0.104l0.265,-0.105l0.265,-0.107l0.263,-0.109l0.263,-0.11l0.262,-0.112l0.261,-0.113l0.26,-0.115l0.26,-0.117l0.258,-0.118l0.258,-0.119l0.257,-0.121l0.256,-0.123l0.256,-0.124l0.254,-0.125l0.254,-0.127l0.252,-0.129l0.252,-0.13l0.251,-0.131l0.25,-0.133l0.249,-0.135l0.248,-0.136l0.247,-0.137l0.247,-0.139l0.245,-0.14l0.245,-0.142l0.243,-0.143l0.243,-0.144l0.242,-0.146l0.24,-0.148l0.24,-0.148l0.239,-0.15l0.238,-0.152l0.237,-0.153l0.236,-0.154l0.235,-0.156l0.234,-0.157l0.233,-0.159l0.232,-0.159l0.231,-0.162l0.23,-0.162l0.228,-0.164l0.228,-0.165l0.227,-0.167l0.226,-0.168l0.225,-0.169l0.224,-0.17l0.222,-0.172l0.222,-0.173l0.22,-0.175l0.22,-0.175l0.218,-0.178l0.218,-0.178l0.216,-0.179l0.215,-0.181l0.214,-0.182l0.213,-0.184l0.212,-0.184l0.211,-0.186l0.209,-0.187l0.209,-0.189l0.207,-0.189l0.206,-0.191l0.205,-0.192l0.204,-0.193l0.203,-0.195l0.201,-0.195l0.201,-0.197l0.199,-0.198l0.198,-0.199l0.197,-0.201l0.195,-0.201l0.195,-0.203l0.193,-0.204l0.192,-0.205l0.191,-0.206l0.189,-0.207l0.189,-0.209l0.187,-0.209l0.186,-0.211l0.184,-0.212l0.184,-0.213l0.182,-0.214l0.181,-0.215l0.179,-0.216l0.178,-0.218l0.178,-0.218l0.175,-0.22l0.175,-0.22l0.173,-0.222l0.172,-0.222l0.17,-0.224l0.169,-0.225l0.168,-0.226l0.167,-0.227l0.165,-0.228l0.164,-0.228l0.162,-0.23l0.162,-0.231l0.159,-0.232l0.159,-0.233l0.157,-0.234l0.156,-0.235l0.154,-0.236l0.153,-0.237l0.152,-0.238l0.15,-0.239l0.148,-0.24l0.148,-0.24l0.146,-0.242l0.144,-0.243l0.143,-0.243l0.142,-0.245l0.14,-0.245l0.139,-0.247l0.137,-0.247l0.136,-0.248l0.135,-0.249l0.133,-0.25l0.131,-0.251l0.13,-0.252l0.129,-0.252l0.127,-0.254l0.125,-0.254l0.124,-0.256l0.123,-0.256l0.121,-0.257l0.119,-0.258l0.118,-0.258l0.117,-0.26l0.115,-0.26l0.113,-0.261l0.112,-0.262l0.11,-0.263l0.109,-0.263l0.107,-0.265l0.105,-0.265l0.104,-0.266l0.103,-0.267l0.101,-0.267l0.099,-0.268l0.098,-0.269l0.096,-0.27l0.094,-0.271l0.093,-0.271l0.091,-0.272l0.09,-0.273l0.088,-0.273l0.086,-0.275l0.085,-0.275l0.083,-0.275l0.081,-0.277l0.08,-0.277l0.078,-0.277l0.076,-0.279l0.075,-0.279l0.073,-0.28l0.071,-0.28l0.07,-0.282l0.068,-0.282l0.066,-0.282l0.064,-0.283l0.063,-0.284l0.061,-0.285l0.059,-0.285l0.058,-0.285l0.056,-0.287l0.054,-0.287l0.052,-0.287l0.051,-0.289l0.049,-0.288l0.047,-0.29l0.045,-0.29l0.044,-0.29l0.042,-0.292l0.039,-0.291l0.039,-0.293l0.036,-0.293l0.034,-0.293l0.033,-0.294l0.031,-0.295l0.029,-0.295l0.027,-0.296l0.026,-0.296l0.023,-0.297l0.022,-0.297l0.02,-0.298l0.018,-0.298l0.016,-0.299l0.014,-0.299l0.013,-0.3l0.01,-0.3l0.009,-0.301l0.006,-0.301l0.005,-0.302l0.003,-0.302l0.001,-0.303l-0.001,-0.303l-0.003,-0.302l-0.005,-0.302l-0.006,-0.301l-0.009,-0.301l-0.01,-0.3l-0.013,-0.3l-0.014,-0.299l-0.016,-0.299l-0.018,-0.298l-0.02,-0.298l-0.022,-0.297l-0.023,-0.297l-0.026,-0.296l-0.027,-0.296l-0.029,-0.295l-0.031,-0.295l-0.033,-0.294l-0.034,-0.293l-0.036,-0.293l-0.039,-0.293l-0.039,-0.291l-0.042,-0.292l-0.044,-0.29l-0.045,-0.29l-0.047,-0.29l-0.049,-0.288l-0.051,-0.289l-0.052,-0.287l-0.054,-0.287l-0.056,-0.287l-0.058,-0.285l-0.059,-0.285l-0.061,-0.285l-0.063,-0.284l-0.064,-0.283l-0.066,-0.282l-0.068,-0.282l-0.07,-0.282l-0.071,-0.28l-0.073,-0.28l-0.075,-0.279l-0.076,-0.279l-0.078,-0.277l-0.08,-0.277l-0.081,-0.277l-0.083,-0.275l-0.085,-0.275l-0.086,-0.275l-0.088,-0.273l-0.09,-0.273l-0.091,-0.272l-0.093,-0.271l-0.094,-0.271l-0.096,-0.27l-0.098,-0.269l-0.099,-0.268l-0.101,-0.267l-0.103,-0.267l-0.104,-0.266l-0.105,-0.265l-0.107,-0.265l-0.109,-0.263l-0.11,-0.263l-0.112,-0.262l-0.113,-0.261l-0.115,-0.26l-0.117,-0.26l-0.118,-0.258l-0.119,-0.258l-0.121,-0.257l-0.123,-0.256l-0.124,-0.256l-0.125,-0.254l-0.127,-0.254l-0.129,-0.252l-0.13,-0.252l-0.131,-0.251l-0.133,-0.25l-0.135,-0.249l-0.136,-0.248l-0.137,-0.247l-0.139,-0.247l-0.14,-0.245l-0.142,-0.245l-0.143,-0.243l-0.144,-0.243l-0.146,-0.242l-0.148,-0.24l-0.148,-0.24l-0.15,-0.239l-0.152,-0.238l-0.153,-0.237l-0.154,-0.236l-0.156,-0.235l-0.157,-0.234l-0.159,-0.233l-0.159,-0.232l-0.162,-0.231l-0.162,-0.23l-0.164,-0.228l-0.165,-0.228l-0.167,-0.227l-0.168,-0.226l-0.169,-0.225l-0.17,-0.224l-0.172,-0.222l-0.173,-0.222l-0.175,-0.22l-0.175,-0.22l-0.177,-0.218l-0.179,-0.218l-0.179,-0.216l-0.181,-0.215l-0.182,-0.214l-0.184,-0.213l-0.184,-0.212l-0.186,-0.211l-0.187,-0.209l-0.189,-0.209l-0.189,-0.207l-0.191,-0.206l-0.192,-0.205l-0.193,-0.204l-0.195,-0.203l-0.195,-0.201l-0.197,-0.201l-0.198,-0.199l-0.199,-0.198l-0.201,-0.197l-0.201,-0.195l-0.203,-0.195l-0.204,-0.193l-0.205,-0.192l-0.206,-0.191l-0.207,-0.189l-0.209,-0.189l-0.209,-0.187l-0.211,-0.186l-0.212,-0.184l-0.213,-0.184l-0.214,-0.182l-0.215,-0.181l-0.216,-0.179l-0.218,-0.178l-0.218,-0.178l-0.22,-0.175l-0.22,-0.175l-0.222,-0.173l-0.222,-0.172l-0.224,-0.17l-0.225,-0.169l-0.226,-0.168l-0.227,-0.167l-0.228,-0.165l-0.228,-0.164l-0.23,-0.162l-0.231,-0.162l-0.232,-0.159l-0.233,-0.159l-0.234,-0.157l-0.235,-0.156l-0.236,-0.154l-0.237,-0.153l-0.238,-0.152l-0.239,-0.15l-0.24,-0.148l-0.24,-0.148l-0.242,-0.146l-0.243,-0.144l-0.243,-0.143l-0.245,-0.142l-0.245,-0.14l-0.247,-0.139l-0.247,-0.137l-0.248,-0.136l-0.249,-0.135l-0.25,-0.133l-0.251,-0.131l-0.252,-0.13l-0.252,-0.129l-0.254,-0.127l-0.254,-0.125l-0.256,-0.124l-0.256,-0.123l-0.257,-0.121l-0.258,-0.119l-0.258,-0.118l-0.26,-0.117l-0.26,-0.115l-0.261,-0.113l-0.262,-0.112l-0.263,-0.11l-0.263,-0.109l-0.265,-0.107l-0.265,-0.105l-0.266,-0.104l-0.267,-0.103l-0.267,-0.101l-0.268,-0.099l-0.269,-0.098l-0.27,-0.096l-0.271,-0.094l-0.271,-0.093l-0.272,-0.091l-0.273,-0.09l-0.273,-0.088l-0.275,-0.086l-0.275,-0.085l-0.275,-0.083l-0.277,-0.081l-0.277,-0.08l-0.277,-0.078l-0.279,-0.076l-0.279,-0.075l-0.28,-0.073l-0.28,-0.071l-0.282,-0.07l-0.282,-0.068l-0.282,-0.066l-0.283,-0.064l-0.284,-0.063l-0.285,-0.061l-0.285,-0.059l-0.285,-0.058l-0.287,-0.056l-0.287,-0.054l-0.287,-0.052l-0.289,-0.051l-0.288,-0.049l-0.29,-0.047l-0.29,-0.045l-0.29,-0.044l-0.292,-0.042l-0.291,-0.039l-0.293,-0.039l-0.293,-0.036l-0.293,-0.034l-0.294,-0.033l-0.295,-0.031l-0.295,-0.029l-0.296,-0.027l-0.296,-0.026l-0.297,-0.023l-0.297,-0.022l-0.298,-0.02l-0.298,-0.018l-0.299,-0.016l-0.299,-0.014l-0.3,-0.013l-0.3,-0.01l-0.301,-0.009l-0.301,-0.006l-0.302,-0.005l-0.302,-0.003l-0.303,-0.001l-0.303,0.001l0,0Z" style="fill:#d2232a;"/></g><g id="attendant"><path d="M152.603,40.974l7.6,0l0,2.3l-7.6,0l0,16c0,2.6 0.2,4.3 0.6,5.1c0.4,0.8 1.5,1.2 3.4,1.2c0.8,0 1.5,-0.1 2.2,-0.2c0.6,-0.2 1.6,-0.5 2.8,-1.1l0,2.8c-0.4,0.2 -1.3,0.5 -2.5,0.9c-1.4,0.3 -2.4,0.5 -3.1,0.5c-1.7,0 -3.1,-0.5 -4.4,-1.5c-1.2,-1 -1.9,-2.4 -1.9,-4.3l0,-19.4l-7.3,0l0,-2.3l7.3,0l0,-6.4l2,-2.5l0.9,0l0,8.9Z" style="fill:#afb1b4;fill-rule:nonzero;"/><path d="M170.703,40.974l7.6,0l0,2.3l-7.6,0l0,16c0,2.6 0.2,4.3 0.6,5.1c0.4,0.8 1.5,1.2 3.4,1.2c0.8,0 1.5,-0.1 2.2,-0.2c0.6,-0.2 1.6,-0.5 2.8,-1.1l0,2.8c-0.4,0.2 -1.3,0.5 -2.5,0.9c-1.4,0.3 -2.4,0.5 -3.1,0.5c-1.7,0 -3.1,-0.5 -4.4,-1.5c-1.2,-1 -1.9,-2.4 -1.9,-4.3l0,-19.4l-7.3,0l0,-2.3l7.3,0l0,-6.4l2,-2.5l0.9,0l0,8.9Z" style="fill:#afb1b4;fill-rule:nonzero;"/><path d="M184.903,53.474c0,0.2 0,0.4 -0.1,0.7c0,0.4 0,0.6 0,0.7c0,1.5 0.3,2.9 0.8,4.3c0.6,1.3 1.3,2.5 2.4,3.5c1,1 2.2,1.7 3.5,2.3c1.3,0.5 2.7,0.8 4.1,0.8c1.8,0 3.5,-0.3 5.1,-1c1.6,-0.6 3.2,-1.7 5,-3.1l0,3.2c-3.1,2.4 -6.6,3.6 -10.4,3.6c-1.9,0 -3.7,-0.4 -5.4,-1c-1.7,-0.7 -3.1,-1.7 -4.3,-3c-1.2,-1.3 -2.1,-2.8 -2.8,-4.6c-0.7,-1.8 -1,-3.7 -1,-5.7c0,-2 0.3,-3.8 0.9,-5.5c0.6,-1.7 1.5,-3.1 2.6,-4.4c1.1,-1.2 2.4,-2.2 3.9,-2.8c1.5,-0.7 3.2,-1 4.9,-1c1.5,0 2.9,0.3 4.4,0.8c1.4,0.5 2.7,1.3 3.8,2.4c1.1,1.1 2,2.5 2.7,4.1c0.7,1.7 1,3.6 1,5.7l-21.1,0Zm17.8,-2.4c-1,-5.2 -3.8,-7.9 -8.5,-7.9c-2.2,0 -4.2,0.7 -5.8,2.1c-1.6,1.4 -2.7,3.3 -3.2,5.8l17.5,0Z" style="fill:#afb1b4;fill-rule:nonzero;"/><path d="M214.803,45.674l0.1,0c1.2,-1.9 2.5,-3.2 3.9,-4c1.4,-0.8 3,-1.2 5,-1.2c3,0 5.4,1 7.3,2.9c1.8,1.9 2.8,4.6 2.8,8.2l0,16.4l-2.9,0l0,-15.4c0,-3 -0.6,-5.3 -1.9,-6.9c-1.3,-1.6 -3.1,-2.4 -5.4,-2.4c-1.9,0 -3.6,0.5 -4.9,1.4c-1.4,0.9 -2.7,2.4 -3.9,4.4l0,18.9l-2.9,0l0,-27l2.9,0l0,4.7l-0.1,0Z" style="fill:#afb1b4;fill-rule:nonzero;"/><path d="M264.503,67.874l-2.9,0l0,-2.1c-1.4,1 -2.7,1.7 -3.9,2.1c-1.2,0.4 -2.5,0.6 -4.1,0.6c-1.9,0 -3.7,-0.4 -5.3,-1c-1.7,-0.7 -3.1,-1.7 -4.4,-3c-1.2,-1.3 -2.2,-2.8 -2.9,-4.5c-0.7,-1.7 -1,-3.6 -1,-5.5c0,-2 0.3,-3.8 1,-5.5c0.7,-1.7 1.6,-3.2 2.9,-4.4c1.2,-1.3 2.7,-2.2 4.3,-2.9c1.7,-0.7 3.5,-1.1 5.4,-1.1c1.4,0 2.6,0.2 3.8,0.5c1.2,0.3 2.6,0.9 4.2,1.7l0,-15.8l2.9,0l0,40.9Zm-2.9,-22.1c-1.5,-0.9 -2.8,-1.6 -4,-2c-1.2,-0.4 -2.5,-0.6 -3.9,-0.6c-3.1,0 -5.7,1 -7.7,3.1c-2,2.1 -3,4.7 -3,7.9c0,1.6 0.3,3.1 0.8,4.5c0.6,1.4 1.4,2.6 2.4,3.7c1,1.1 2.2,1.8 3.6,2.4c1.4,0.6 2.9,0.8 4.5,0.8c1.4,0 2.6,-0.2 3.6,-0.5c1.1,-0.4 2.3,-1 3.6,-1.9l0,-17.4l0.1,0Z" style="fill:#afb1b4;fill-rule:nonzero;"/><path d="M293.403,65.574l-0.5,0.4c-1.3,1 -2.3,1.6 -3,2c-0.7,0.3 -1.4,0.5 -2,0.5c-0.6,0 -1.1,-0.2 -1.3,-0.7c-0.3,-0.4 -0.5,-1.3 -0.6,-2.7c-1.5,1.2 -2.9,2 -4.3,2.6c-1.4,0.5 -2.8,0.8 -4.2,0.8c-2,0 -3.8,-0.7 -5.2,-2c-1.4,-1.3 -2.1,-2.9 -2.1,-4.8c0,-1.7 0.4,-3.1 1.3,-4.4c0.9,-1.2 2,-2.2 3.5,-3c1.5,-0.8 3.1,-1.4 5,-1.8c1.9,-0.4 3.8,-0.6 5.9,-0.7l0,-3.4c0,-3.7 -2,-5.5 -6,-5.5c-1.4,0 -2.7,0.3 -3.9,0.8c-1.2,0.5 -2.7,1.4 -4.3,2.6l0,-2.9c1.6,-1 3.1,-1.8 4.5,-2.2c1.3,-0.4 2.8,-0.7 4.2,-0.7c1,0 1.9,0.1 2.9,0.3c0.9,0.2 1.8,0.6 2.7,1.1c0.9,0.5 1.5,1.2 2.1,2.2c0.5,0.9 0.8,2.1 0.8,3.4l0,16.8c0,0.9 0.2,1.4 0.7,1.4c0.3,0 0.8,-0.2 1.5,-0.7c0.7,-0.5 1.5,-1 2.3,-1.7l0,2.3Zm-7.3,-11.4c-3.8,0 -6.9,0.7 -9.3,2c-2.4,1.4 -3.6,3.2 -3.6,5.4c0,1.3 0.5,2.3 1.5,3.2c1,0.9 2.3,1.3 3.8,1.3c1.3,0 2.5,-0.3 3.7,-0.8c1.2,-0.5 2.4,-1.4 3.8,-2.7l0,-8.4l0.1,0Z" style="fill:#afb1b4;fill-rule:nonzero;"/><path d="M300.403,45.674l0.1,0c1.2,-1.9 2.5,-3.2 3.9,-4c1.4,-0.8 3,-1.2 5,-1.2c3,0 5.4,1 7.3,2.9c1.9,1.9 2.8,4.6 2.8,8.2l0,16.4l-2.9,0l0,-15.4c0,-3 -0.6,-5.3 -1.9,-6.9c-1.3,-1.6 -3.1,-2.4 -5.4,-2.4c-1.9,0 -3.6,0.5 -4.9,1.4c-1.4,0.9 -2.7,2.4 -3.9,4.4l0,18.9l-2.9,0l0,-27l2.9,0l0,4.7l-0.1,0l0,0Z" style="fill:#afb1b4;fill-rule:nonzero;"/><path d="M332.003,40.974l7.6,0l0,2.3l-7.6,0l0,16c0,2.6 0.2,4.3 0.6,5.1c0.4,0.8 1.6,1.2 3.4,1.2c0.8,0 1.5,-0.1 2.2,-0.2c0.6,-0.2 1.6,-0.5 2.8,-1.1l0,2.8c-0.4,0.2 -1.3,0.5 -2.5,0.9c-1.4,0.3 -2.4,0.5 -3.1,0.5c-1.7,0 -3.1,-0.5 -4.4,-1.5c-1.2,-1 -1.9,-2.4 -1.9,-4.3l0,-19.4l-7.3,0l0,-2.3l7.3,0l0,-6.4l2,-2.5l0.9,0l0,8.9Z" style="fill:#afb1b4;fill-rule:nonzero;"/><path d="M143.903,67.874l-3.3,0l-6.5,-14.2l-20,0l-17.7,38.6l-3.2,0l30.1,-65.7l1.7,0l18.9,41.3Zm-19.8,-36.1l-8.8,19.3l17.6,0l-8.8,-19.3l0,0Z" style="fill:#afb1b4;fill-rule:nonzero;"/></g><g id="art"><path d="M42.703,65.574l-0.5,0.4c-1.3,1 -2.3,1.6 -3,2c-0.7,0.3 -1.4,0.5 -2,0.5c-0.6,0 -1.1,-0.2 -1.3,-0.7c-0.3,-0.4 -0.5,-1.3 -0.6,-2.7c-1.5,1.2 -2.9,2 -4.3,2.6c-1.4,0.5 -2.8,0.8 -4.2,0.8c-2,0 -3.8,-0.7 -5.2,-2c-1.4,-1.3 -2.1,-2.9 -2.1,-4.8c0,-1.7 0.4,-3.1 1.3,-4.4c0.9,-1.2 2,-2.2 3.5,-3c1.5,-0.8 3.1,-1.4 5,-1.8c1.9,-0.4 3.8,-0.6 5.9,-0.7l0,-3.4c0,-3.7 -2,-5.5 -6,-5.5c-1.4,0 -2.7,0.3 -3.9,0.8c-1.2,0.5 -2.7,1.4 -4.3,2.6l0,-2.9c1.6,-1 3.1,-1.8 4.5,-2.2c1.3,-0.4 2.8,-0.7 4.2,-0.7c1,0 1.9,0.1 2.9,0.3c0.9,0.2 1.8,0.6 2.7,1.1c0.9,0.5 1.5,1.2 2.1,2.2c0.5,0.9 0.8,2.1 0.8,3.4l0,16.8c0,0.9 0.2,1.4 0.7,1.4c0.3,0 0.8,-0.2 1.5,-0.7c0.7,-0.5 1.5,-1 2.3,-1.7l0,2.3Zm-7.4,-11.4c-3.8,0 -6.9,0.7 -9.3,2c-2.4,1.4 -3.6,3.2 -3.6,5.4c0,1.3 0.5,2.3 1.5,3.2c1,0.9 2.3,1.3 3.8,1.3c1.3,0 2.5,-0.3 3.7,-0.8c1.2,-0.5 2.4,-1.4 3.8,-2.7l0,-8.4l0.1,0Z" style="fill:#fff;fill-rule:nonzero;"/><path d="M62.103,46.274c-1.3,-1.2 -2.3,-2 -3.1,-2.4c-0.8,-0.4 -1.6,-0.7 -2.3,-0.7c-1.3,0 -2.7,0.7 -4.2,2c-1.5,1.3 -3,3.3 -4.4,5.7l0,16.9l-2.9,0l0,-26.8l2.9,0l0,7.1l0.1,0c3.2,-5.1 6.3,-7.6 9.4,-7.6c0.9,0 1.8,0.2 2.8,0.7c0.9,0.5 2.1,1.3 3.4,2.5l-1.7,2.6l0,0Z" style="fill:#fff;fill-rule:nonzero;"/><path d="M75.003,40.974l7.6,0l0,2.3l-7.6,0l0,16c0,2.6 0.2,4.3 0.6,5.1c0.4,0.8 1.5,1.2 3.4,1.2c0.8,0 1.5,-0.1 2.2,-0.2c0.6,-0.2 1.6,-0.5 2.8,-1.1l0,2.8c-0.4,0.2 -1.3,0.5 -2.5,0.9c-1.4,0.3 -2.4,0.5 -3.1,0.5c-1.7,0 -3.1,-0.5 -4.4,-1.5c-1.2,-1 -1.9,-2.4 -1.9,-4.3l0,-19.4l-7.3,0l0,-2.3l7.3,0l0,-6.4l2,-2.5l0.9,0l0,8.9Z" style="fill:#fff;fill-rule:nonzero;"/></g></svg>