<?xml version="1.0" encoding="utf-8"?>
<!-- Generator: Adobe Illustrator 21.0.0, SVG Export Plug-In . SVG Version: 6.00 Build 0)  -->
<svg version="1.1" id="Layer_1" xmlns="http://www.w3.org/2000/svg" xmlns:xlink="http://www.w3.org/1999/xlink" x="0px" y="0px"
	 viewBox="0 0 72 72" style="enable-background:new 0 0 72 72;" xml:space="preserve">
<path d="M36,0C16.1,0,0,16.1,0,36s16.1,36,36,36s36-16.1,36-36S55.9,0,36,0z M36,26.7c-4.2,0-7.7-3.4-7.7-7.7c0-4.2,3.4-7.7,7.7-7.7
	s7.7,3.4,7.7,7.7C43.7,23.2,40.2,26.7,36,26.7z M7.9,36c0-10.6,5.9-19.8,14.6-24.6c-1.3,2.3-2,4.8-2,7.6c0,3.9,1.4,7.4,3.8,10.1
	C16.6,31.5,12,36.3,12,42.7v7.9C9.4,46.4,7.9,41.4,7.9,36z M19.9,59V42.7c0-5,8.4-7.3,16.1-7.3s16.1,2.3,16.1,7.3V59
	C47.6,62.2,42,64.1,36,64.1C30,64.1,24.4,62.2,19.9,59z M60,50.6v-7.9c0-6.4-4.6-11.2-12.2-13.6c2.4-2.7,3.8-6.3,3.8-10.1
	c0-2.8-0.7-5.4-2-7.6c8.7,4.8,14.6,14,14.6,24.6C64.1,41.4,62.6,46.4,60,50.6z"/>
</svg>
